<svg id="Layer_1" data-name="Layer 1" xmlns="http://www.w3.org/2000/svg" width="743" height="259.99" viewBox="0 0 743 259.99"><defs><style>.cls-1{fill:#124734;}.cls-2{fill:#231f20;}</style></defs><title>university-of-hawaii-at-manoa-logo</title><path class="cls-1" d="M133.49,245c-71.67,0-130,58.33-130,130s58.32,130,130,130,130-58.32,130-130-58.32-130-130-130m0,255.5A125.5,125.5,0,1,1,259,375,125.64,125.64,0,0,1,133.49,500.5ZM247.62,348.86a2.15,2.15,0,0,1,0,.65.41.41,0,0,1-.37.33l-11.47,2.41a.4.4,0,0,1-.47-.14,2.82,2.82,0,0,1-.25-.61l-.36.07,1.11,5.4.36-.07a2.17,2.17,0,0,1,0-.67c0-.16.15-.27.37-.32L248,353.5a.41.41,0,0,1,.47.15,2.25,2.25,0,0,1,.26.61l.35-.08-1.09-5.4Zm-34.87-42.4a.78.78,0,0,1-.92-.24l-.29.21,3.71,4.43.3-.22a2.65,2.65,0,0,1-.21-.49c-.05-.15,0-.26.08-.32a2.63,2.63,0,0,1,.66-.3l6-2.06c.4-.14.67-.25.82-.32l0,0c-.1.13-.28.37-.52.73s-3.36,4.91-3.58,5.22a3.35,3.35,0,0,1-.46.57c-.16.11-.44,0-.81-.41l-.29.22,3.35,4.8.29-.22c-.27-.45-.15-.81.05-1,0,0,10.63-4.07,10.82-4.15a3.64,3.64,0,0,1,.57-.16.61.61,0,0,1,.52.23l.3-.22-2.48-3.8-.3.23a1.13,1.13,0,0,1,.24.49.42.42,0,0,1-.2.46c-.1.08-7.15,2.89-7.35,3l0-.05c.09-.11,4-5.94,4.22-6.27a5.65,5.65,0,0,1,.4-.52.43.43,0,0,1,.51-.07,1.21,1.21,0,0,1,.4.35l.29-.23-3.4-4.45-.28.22a1.62,1.62,0,0,1,.22.46.45.45,0,0,1-.2.47,3.15,3.15,0,0,1-.69.33c-.35.12-6.86,2.32-7.07,2.42l0,0c.13-.16,4.77-6.35,4.84-6.39a.44.44,0,0,1,.51-.08,1.4,1.4,0,0,1,.39.33l.29-.21-3.18-3.62-.28.22a.54.54,0,0,1,.09.25.41.41,0,0,1-.14.34C219.84,296.77,212.82,306.41,212.75,306.46Zm-25.62-20.89a2,2,0,0,1-.42-.4.45.45,0,0,1,0-.48l2.46-3.93,5.22,3.27L192,288c-.12.18-.26.27-.41.23A1.53,1.53,0,0,1,191,288l-.19.31,4.33,3,.18-.3a1.88,1.88,0,0,1-.4-.4.41.41,0,0,1,0-.49l6.23-9.93a.4.4,0,0,1,.42-.23,1.84,1.84,0,0,1,.53.18l.2-.31-4.37-3-.2.32a1.74,1.74,0,0,1,.41.4c.1.13.08.28,0,.48l-2.06,3.34-5.23-3.27,2.08-3.36c.12-.18.26-.27.41-.24a1.9,1.9,0,0,1,.55.19l.19-.31-4.58-2.64-.2.31a1.68,1.68,0,0,1,.4.4.39.39,0,0,1,0,.48l-6.19,10q-.18.29-.42.24a2.15,2.15,0,0,1-.53-.19l-.19.31,4.57,2.61Zm-20.08-9.33a1.87,1.87,0,0,1-.49-.3c-.12-.1-.14-.26-.07-.48l1.36-3.93,4.82,1.67a.57.57,0,0,1,.27.23.86.86,0,0,1,0,.62l.32.11,1.34-3.87-.33-.11c-.09.27-.21.43-.32.47a.64.64,0,0,1-.36,0L168.73,269l.93-2.68,7.13,2.48c.1,0,.18.11.27.23a.82.82,0,0,1-.05.62l.32.11,1.36-3.93-.31-.1c-.1.27-.21.43-.34.47a.64.64,0,0,1-.36,0l-11.4-4-.11.34a2.36,2.36,0,0,1,.52.32.39.39,0,0,1,.08.48l-3.83,11.08a.43.43,0,0,1-.35.34,2.59,2.59,0,0,1-.57-.07l-.11.34,5,1.55Zm-18.79-5.69a7,7,0,0,0,2.12,1.62,9.64,9.64,0,0,0,5.17,1,7,7,0,0,0,2.56-.74,6.45,6.45,0,0,0,2.12-1.76,7.72,7.72,0,0,0,1.15-6.16,6.24,6.24,0,0,0-1.3-2.44,7.33,7.33,0,0,0-2.12-1.67,9.64,9.64,0,0,0-2.51-.88,9.36,9.36,0,0,0-2.65-.09,7.16,7.16,0,0,0-2.58.78,6.41,6.41,0,0,0-2.11,1.79,6.87,6.87,0,0,0-1.23,3,6.7,6.7,0,0,0,.07,3.2A6.4,6.4,0,0,0,148.26,270.55Zm2.17-4.95a3.82,3.82,0,0,1,.57-1.46,3.4,3.4,0,0,1,1-1,3.51,3.51,0,0,1,1.32-.5,4.21,4.21,0,0,1,1.5,0,4.12,4.12,0,0,1,1.4.53,3.59,3.59,0,0,1,1.06.95,3.38,3.38,0,0,1,.6,1.27,4.59,4.59,0,0,1,0,1.57,3.84,3.84,0,0,1-.58,1.45,3.29,3.29,0,0,1-1,1,3.75,3.75,0,0,1-1.32.49,4.07,4.07,0,0,1-4-1.49,3.26,3.26,0,0,1-.59-1.28A3.56,3.56,0,0,1,150.43,265.6Zm58.33,21.79c-.72.36-9.36,4.65-10.73,5.35a.39.39,0,0,1-.32,0,.74.74,0,0,1-.3-.17l-.24.28,3.29,2.71.24-.28-.15-.18c-.06-.07,0-.16.06-.27a1.35,1.35,0,0,1,.33-.21c.17-.08,1.53-.73,1.65-.81l4.82,4.29L206.8,300a1.33,1.33,0,0,1-.18.35c-.1.11-.18.14-.27.09a1.28,1.28,0,0,1-.19-.12l-.24.28,3.33,3.37.25-.28a.79.79,0,0,1-.2-.27.39.39,0,0,1,0-.33c.21-.53,3.89-11.62,4.06-12.1a6,6,0,0,1,.32-.81c.13-.14.28-.13.47,0l.25-.27L210.11,286l-.24.27c.16.18.18.34.06.47A6.08,6.08,0,0,1,208.76,287.39Zm-.58,8.46-3.45-3.07L210,290.3Zm-87.94-37.1a.57.57,0,0,1,.37.22l5.6,7.52.2,3.94a.44.44,0,0,1-.18.44,1.14,1.14,0,0,1-.39.14l0,.37,4.87-.25v-.37a1.18,1.18,0,0,1-.4-.1c-.13-.05-.2-.19-.21-.41l-.21-4.07,4.3-7.9a.6.6,0,0,1,.34-.26,2.06,2.06,0,0,1,.39-.08l0-.37-5.42.07,0,.36a1.72,1.72,0,0,1,.36,0,.26.26,0,0,1,.24.28,2.39,2.39,0,0,1-.31.8c-.2.38-1.84,3.3-1.91,3.47-.3-.39-2.38-3.12-2.57-3.38a1.55,1.55,0,0,1-.28-.64.26.26,0,0,1,.22-.3c.16,0,.29-.06.41-.07l0-.36-5.88.52,0,.36A2.64,2.64,0,0,1,120.24,258.75ZM243.7,342.41a3.6,3.6,0,0,0-1.75,1,1.82,1.82,0,0,0-.35,1.83,2.1,2.1,0,0,0,1,1.28,1.94,1.94,0,0,0,1.68.19,2,2,0,0,0,1.45-1.14,2.86,2.86,0,0,0,0-1.81,2.69,2.69,0,0,1,1.78.4,5.1,5.1,0,0,1,1.32,1.16l.88-.24a11.12,11.12,0,0,0-1.12-1.29,6.32,6.32,0,0,0-1.4-1,5,5,0,0,0-1.63-.53A4.09,4.09,0,0,0,243.7,342.41Zm-20.81-21.17a1.09,1.09,0,0,1-.22-.27l-.32.17,2.11,3.69.33-.17a.64.64,0,0,1-.07-.21c0-.09,0-.17.15-.23a.81.81,0,0,1,.39-.08c.18,0,1.69-.15,1.83-.18l3,5.73c-.1.12-1.11,1.36-1.24,1.49a1.19,1.19,0,0,1-.29.26c-.13.07-.22.06-.28,0a1.5,1.5,0,0,1-.14-.19l-.31.17,1.91,4.33.33-.16a.63.63,0,0,1-.08-.34.39.39,0,0,1,.09-.3c.38-.42,7.76-9.49,8.1-9.88a5.23,5.23,0,0,1,.59-.65c.16-.08.3,0,.44.18l.32-.17-2.62-5.13-.33.17c.09.22.06.38-.1.47a10,10,0,0,1-1.33.19l-11.94,1.19A.53.53,0,0,1,222.89,321.24Zm12.37,2-3.67,4.55-2.14-4.09Zm7.4,11-11,4a.41.41,0,0,1-.48-.08,2.09,2.09,0,0,1-.33-.57l-.36.12,1.86,5.19.34-.12a2.66,2.66,0,0,1-.11-.65c0-.17.11-.29.34-.37l11-4a.4.4,0,0,1,.48.07,1.93,1.93,0,0,1,.34.58l.35-.13-1.85-5.19-.34.12a2.28,2.28,0,0,1,.1.65C243,334.07,242.87,334.19,242.66,334.27ZM104.89,265c-.06-.28,0-.48.06-.58a.54.54,0,0,1,.3-.19l3.9-.78,1.85,9.22c0,.23,0,.38-.11.47a1.5,1.5,0,0,1-.4.2l.06.36,4.91-1-.07-.36a1.64,1.64,0,0,1-.44,0,.4.4,0,0,1-.28-.38l-1.86-9.22,3.89-.79a.58.58,0,0,1,.36.06c.12.06.2.22.26.5l.34-.06-.89-4.4-.32.07a.73.73,0,0,1-.06.58.59.59,0,0,1-.3.19l-11.46,2.3a.54.54,0,0,1-.35-.05c-.13-.06-.21-.23-.28-.52l-.33.07.89,4.39ZM37.33,308.3a.45.45,0,0,1,.27-.12,3.37,3.37,0,0,1,1,.26c.6.21,9.27,3.43,9.84,3.66s1,.38,1,.39a.43.43,0,0,1,.18.39.55.55,0,0,1-.16.37l.29.23,3.62-4.62-.29-.24a.54.54,0,0,1-.33.25.46.46,0,0,1-.42-.08,7.64,7.64,0,0,1-.57-.81c-.31-.48-5.91-9.59-6.05-9.77a.62.62,0,0,1-.11-.36.71.71,0,0,1,.14-.36l-.29-.23-3,3.5.3.23c.06-.07.14-.17.26-.29a.26.26,0,0,1,.38,0s.23.34.56.86,3.43,5.65,3.79,6.24l0,.05c-.13-.06-6.76-2.47-7.12-2.61l-.58-.24a.26.26,0,0,1-.06-.38l.24-.37L40,304l-3.06,4.22.29.23A.57.57,0,0,1,37.33,308.3Zm10.87-14,.25.27a2.27,2.27,0,0,1,.48-.29.43.43,0,0,1,.46.15L57.32,303a.41.41,0,0,1,.12.47,1.75,1.75,0,0,1-.32.46l.25.27,9-8.59a1.56,1.56,0,0,1,.41-.28c.09,0,.28,0,.54.16l.19-.2-2.66-2.87-.24.23c.26.45.26.79,0,1L58.78,299l-2.05-2.22,3.82-3.56a.47.47,0,0,1,.34-.12c.14,0,.31.08.5.3l.25-.24-2.71-2.9-.24.22c.19.22.28.38.26.53a.47.47,0,0,1-.16.33L55,295l-1.69-1.82,5.93-5.54a.5.5,0,0,1,.35-.13.78.78,0,0,1,.52.32l.24-.22-2.79-3-.25.23c.19.21.29.38.25.52a.57.57,0,0,1-.16.32Zm14.91-12.66c.15,0,.28.06.4.25l6.57,9.68c.12.19.15.34.07.46a1,1,0,0,1-.22.31l.2.31L74,289.82l-.2-.3a1.74,1.74,0,0,1-.5.19c-.15,0-.28,0-.41-.24L70.54,286l2.23-1.5c.1.08,3.1,1.7,3.5,1.93a2.53,2.53,0,0,1,.66.48.27.27,0,0,1,0,.39,1.22,1.22,0,0,1-.3.3l.2.31,5-3.09-.22-.3a.93.93,0,0,1-.57.16,1.4,1.4,0,0,1-.58-.12l-4.67-2.14a6.19,6.19,0,0,0,1-2.5,3.79,3.79,0,0,0-.74-2.65,3.88,3.88,0,0,0-2.81-1.94,4.84,4.84,0,0,0-3.36,1l-7.3,5.15.21.3A1.33,1.33,0,0,1,63.11,281.63Zm7.4-2.45a2.29,2.29,0,0,1,1.66-.56,1.63,1.63,0,0,1,1,.74,1.49,1.49,0,0,1,.28,1.31,2.27,2.27,0,0,1-.94,1.14L69.25,284l-1.85-2.75ZM23.84,334.35a.43.43,0,0,1,.49,0L35,339.08c.21.09.31.21.31.36a1.48,1.48,0,0,1-.08.49l.34.16,1.72-4.46-.35-.14a1.76,1.76,0,0,1-.31.42.46.46,0,0,1-.49,0l-7.33-3.25,0-.08c1.24-.29,2.45-.62,3.6-1l3.13-1c.92-.29,1.7-.52,2.32-.69a2.49,2.49,0,0,1,1.18-.14.32.32,0,0,1,.19.41,2.1,2.1,0,0,1-.15.48l.33.15,2.3-4.6-.34-.15a1.45,1.45,0,0,1-.34.46.37.37,0,0,1-.47,0l-10.72-4.75c-.2-.1-.31-.22-.31-.37a1.94,1.94,0,0,1,.12-.57l-.34-.14-2.18,4.4.35.15a2.26,2.26,0,0,1,.32-.47.45.45,0,0,1,.49,0l5.57,2.47c-.87.26-1.73.53-2.61.78s-1.67.49-2.38.7l-1.78.5a2.51,2.51,0,0,1-.77.17.45.45,0,0,1-.39-.4,1.36,1.36,0,0,1,.05-.41l-.33-.14-2.46,6.14.33.15A2,2,0,0,1,23.84,334.35Zm8.77-18.5a.41.41,0,0,1,.48,0l10,6.08a.4.4,0,0,1,.24.41,2,2,0,0,1-.24.63l.33.19,2.87-4.71-.3-.19a2.57,2.57,0,0,1-.46.5.41.41,0,0,1-.49,0l-10-6.07a.43.43,0,0,1-.25-.43,3.45,3.45,0,0,1,.24-.62l-.31-.19-2.88,4.71.32.19A1.88,1.88,0,0,1,32.61,315.85ZM81.9,276.57a4.37,4.37,0,0,0,2,.3,9.53,9.53,0,0,0,2.23-.43l2.13-.66a7.4,7.4,0,0,1,1.7-.33.93.93,0,0,1,1,1.29,1.86,1.86,0,0,1-.48.66,2.88,2.88,0,0,1-.7.5,6.37,6.37,0,0,1-.61.32,12.73,12.73,0,0,1-1.69.62,15,15,0,0,1-1.78.41,8,8,0,0,1-1.44.11c-.39,0-.64-.12-.72-.31a1.26,1.26,0,0,1-.08-.18.57.57,0,0,0,0-.14H83l.66,4.19.32,0c.05-.13.08-.25.14-.39a.51.51,0,0,1,.26-.26,4.83,4.83,0,0,1,.67-.13c.39,0,.87-.14,1.45-.26a17.65,17.65,0,0,0,1.86-.48,18,18,0,0,0,1.91-.72,10.52,10.52,0,0,0,2.36-1.44A4.9,4.9,0,0,0,94,277.55a3.83,3.83,0,0,0,.42-1.77,4.13,4.13,0,0,0-.38-1.69,3,3,0,0,0-1.48-1.63,4.36,4.36,0,0,0-2-.35,9.55,9.55,0,0,0-2.24.41c-.76.22-1.48.43-2.14.64a10.19,10.19,0,0,1-1.67.36.84.84,0,0,1-1-.43.89.89,0,0,1,0-.88,3.45,3.45,0,0,1,.69-.75,4.51,4.51,0,0,1,.9-.59l.7-.33a8.08,8.08,0,0,1,1.33-.46,9.73,9.73,0,0,1,1.25-.22,6.64,6.64,0,0,1,1,0c.25,0,.39.06.43.14l.06.17.06.15h.4l-.08-4.19-.33,0a1.81,1.81,0,0,0-.13.31.48.48,0,0,1-.28.28,3.61,3.61,0,0,1-.72.2c-.35.06-.76.16-1.26.27s-1,.25-1.6.43a14.75,14.75,0,0,0-1.78.69,7.89,7.89,0,0,0-2.43,1.6,5.77,5.77,0,0,0-1.27,1.81,4.18,4.18,0,0,0-.34,1.79,3.7,3.7,0,0,0,.33,1.52A2.83,2.83,0,0,0,81.9,276.57Zm-54.26,79a4.73,4.73,0,0,0,2.1-.6,4.93,4.93,0,0,0,1.7-1.65,9.39,9.39,0,0,0,1.17-2.89,9.67,9.67,0,0,0,.3-3.12,5.08,5.08,0,0,0-.74-2.24,5,5,0,0,0-1.59-1.5,7.9,7.9,0,0,0-2.17-.88l-6.35-1.57c-.23-.06-.34-.17-.37-.34a2.33,2.33,0,0,1,0-.58l-.36-.09L20,344.91l.35.09a1,1,0,0,1,.19-.27c.09-.09.23-.12.46-.06l7.25,1.76a1.86,1.86,0,0,1,1.43,1.15,3.56,3.56,0,0,1,0,2.08,3.67,3.67,0,0,1-1,1.85,1.82,1.82,0,0,1-1.8.35l-7.25-1.78c-.22-.05-.36-.14-.38-.27a.68.68,0,0,1,0-.31l-.38-.09-1,4.91.36.09a2.38,2.38,0,0,1,.25-.53.42.42,0,0,1,.47-.13l6.36,1.56A8.11,8.11,0,0,0,27.64,355.53Zm67.64-91.08c.16,0,.28.12.35.33l3.67,11.13a.37.37,0,0,1-.08.47,1.82,1.82,0,0,1-.58.31l.11.36,5.25-1.71-.12-.35a2.21,2.21,0,0,1-.65.09.41.41,0,0,1-.37-.33l-3.67-11.11c-.07-.22,0-.37.09-.48a2.28,2.28,0,0,1,.58-.33l-.12-.35-5.24,1.71.11.35A2.25,2.25,0,0,1,95.28,264.45Zm67.23,210.34-.43-1.47-3.55,1.06.43,1.46Zm57.3-23.12a.88.88,0,0,1-.33,0l-6.26-1.74c0-.33-.24-2.42-.28-2.94s-.06-1-.06-1.41a1.59,1.59,0,0,1,.15-.88l-.21-.19-2.53,2.77.21.19a1.13,1.13,0,0,1,.27-.16c.12,0,.23,0,.36.11a1.38,1.38,0,0,1,.1.38c0,.21.07.49.11.84s.26,4.27.29,4.55l-3.14-3a.31.31,0,0,1-.12-.36,1.72,1.72,0,0,1,.18-.32l-.2-.2-2.52,2.47.2.21a.48.48,0,0,1,.27-.2.39.39,0,0,1,.36.15l6.45,6.24a.34.34,0,0,1,.15.35.37.37,0,0,1-.16.28l.2.2,2.54-2.48-.2-.2a1.07,1.07,0,0,1-.32.2c-.12.06-.23,0-.36-.1L213.57,455l-.29-2.57,3.93,1.13a2.29,2.29,0,0,1,.33.14.32.32,0,0,1,.1.38,1.13,1.13,0,0,1-.18.28l.21.2,2.58-2.83-.21-.2A.46.46,0,0,1,219.81,451.67ZM168.86,485a.24.24,0,0,1-.18-.13c-.25-.35-5.18-7.14-5.4-7.46a3.22,3.22,0,0,1-.36-.56c0-.13,0-.23.18-.28l-.09-.28-3.81,1,.08.27c.16,0,.26,0,.29.17a4.67,4.67,0,0,1,0,1c0,.6-.59,7.57-.66,8.74a.28.28,0,0,1-.1.21.53.53,0,0,1-.2.12l.07.27,2.73-.64-.07-.27-.15,0c-.06,0-.11-.05-.14-.17a1.43,1.43,0,0,1,0-.3c0-.14.1-1.24.1-1.37l4.25-1.15c.06.1.71,1,.8,1.11a1.78,1.78,0,0,1,.14.27c0,.11,0,.18-.05.21a.3.3,0,0,1-.13.06l.07.27,3-.9-.06-.28A.49.49,0,0,1,168.86,485Zm-7.59-1.39.41-4.4,2.61,3.58Zm35.8-12.13a.38.38,0,0,1-.23-.08c-.32-.28-6.89-5.47-7.18-5.72a3.8,3.8,0,0,1-.51-.45.23.23,0,0,1,.1-.33l-.15-.25-3.4,2,.15.24a.23.23,0,0,1,.33.08,7.59,7.59,0,0,1,.25,1c.12.6,1.48,7.44,1.72,8.58a.28.28,0,0,1,0,.22.47.47,0,0,1-.16.18l.14.24,2.47-1.37-.15-.23-.14.06q-.09,0-.18-.12a1.22,1.22,0,0,1-.09-.3c0-.14-.22-1.18-.25-1.31l3.77-2.25,1.07.86a.91.91,0,0,1,.2.21c.06.09.06.17,0,.21l-.12.1.14.24,2.61-1.68-.15-.25A.41.41,0,0,1,197.07,471.43Zm-7.68.71-.79-4.35,3.48,2.74Zm38-29.95a.29.29,0,0,1-.24,0c-.41-.15-8.35-2.64-8.73-2.77a3.66,3.66,0,0,1-.62-.25.23.23,0,0,1,0-.34l-.23-.18-2.46,3.1.23.18a.24.24,0,0,1,.34-.05,6.49,6.49,0,0,1,.59.87c.33.52,4,6.42,4.66,7.4a.26.26,0,0,1,0,.22.34.34,0,0,1-.09.22l.23.18,1.82-2.15-.23-.18-.11.11s-.12,0-.22,0a2,2,0,0,1-.17-.25c-.08-.12-.64-1-.72-1.13l2.72-3.46,1.28.42a1.23,1.23,0,0,1,.26.13c.09.07.12.13.09.19a.37.37,0,0,1-.07.13l.23.18,1.83-2.51-.23-.18A.37.37,0,0,1,227.42,442.19Zm-6.88,3.42-2.3-3.78,4.24,1.3Zm-65.32,35a1.69,1.69,0,0,0-1.2-.17,2.16,2.16,0,0,1,.34-1.31,3.78,3.78,0,0,1,.83-.9l-.14-.67a6.55,6.55,0,0,0-.9.73,3.76,3.76,0,0,0-.75,1,3.94,3.94,0,0,0-.43,1.18,3.63,3.63,0,0,0,0,1.39,3,3,0,0,0,.63,1.4,1.18,1.18,0,0,0,1.21.42,1.38,1.38,0,0,0,.9-.61,1.94,1.94,0,0,0-.51-2.44Zm18.55,2.62c-.12,0-.2-.1-.27-.27l-3-8.44c-.06-.16-.05-.29,0-.36a1.31,1.31,0,0,1,.39-.25l-.1-.27-3.54,1.26.11.27a1.27,1.27,0,0,1,.44-.06c.12,0,.21.09.26.26l3,8.45c.05.17.05.3,0,.37a1.38,1.38,0,0,1-.39.24l.1.27,3.51-1.27-.08-.27A1.27,1.27,0,0,1,173.77,483.24Zm31.85-18.08c-.11,0-.22,0-.32-.16l-5.57-7a.36.36,0,0,1-.08-.37,1.38,1.38,0,0,1,.29-.34l-.17-.23-3,2.31.16.22a1.65,1.65,0,0,1,.41-.2c.12,0,.23,0,.33.15l5.58,7.05a.32.32,0,0,1,.07.35,1.25,1.25,0,0,1-.29.35l.18.23,2.94-2.3L206,465A1.56,1.56,0,0,1,205.62,465.16ZM185.9,477.89c-.11,0-.2-.08-.28-.24l-3.75-8.16a.38.38,0,0,1,0-.36,1.33,1.33,0,0,1,.31-.24l-.12-.26-3,1.48.11.26a1,1,0,0,1,.38-.08c.12,0,.2.08.28.24l2,4.24-4.6-2.51c-.3-.17-.44-.23-.48-.3a.34.34,0,0,1,0-.35,1.86,1.86,0,0,1,.22-.19l-.12-.26-4.15,1.77.13.27a1,1,0,0,1,.36-.07c.1,0,.19.08.28.24l3.74,8.17a.34.34,0,0,1,0,.35.84.84,0,0,1-.26.23l.12.25,3-1.25-.12-.27a1,1,0,0,1-.35.07q-.17,0-.27-.24l-2.58-5.62V475c.81.49,3.88,2.13,4.51,2.46l1.59.87a1.94,1.94,0,0,1,.69.54.22.22,0,0,1-.06.32,1.86,1.86,0,0,1-.31.19l.13.26,3.14-1.56-.11-.26A1.61,1.61,0,0,1,185.9,477.89Zm58.87-72.05c-.08.09-.19.11-.36.05l-8.55-2.75c-.16-.06-.25-.14-.26-.25a.89.89,0,0,1,0-.39l-.27-.09-.92,3.19.26.09a1.25,1.25,0,0,1,.21-.33c.08-.08.19-.09.37,0l4.43,1.44-4.94,1.68a2.3,2.3,0,0,1-.55.14.28.28,0,0,1-.27-.22.9.9,0,0,1,0-.28l-.27-.1-1.5,4.26.27.09a1.05,1.05,0,0,1,.21-.31.3.3,0,0,1,.35,0l8.56,2.76c.18.05.26.13.28.23a1.39,1.39,0,0,1,0,.35l.27.09,1.08-3.05-.28-.09a.86.86,0,0,1-.19.31c-.08.08-.2.08-.36,0l-5.88-1.89,0-.06c.91-.27,4.18-1.4,4.86-1.65s1.26-.43,1.72-.58a2,2,0,0,1,.87-.15.23.23,0,0,1,.18.28,1.21,1.21,0,0,1-.05.34l.26.08,1-3.37-.27-.08A1,1,0,0,1,244.77,405.84ZM233.37,433c-.08.06-.2,0-.35-.05l-2.51-1.5,1.09-1.83a7.3,7.3,0,0,0,.58-1.24,3,3,0,0,0,.14-1.25,2.78,2.78,0,0,0-.51-1.22,4.75,4.75,0,0,0-2.89-1.73,2.72,2.72,0,0,0-1.29.15,3.14,3.14,0,0,0-1,.72,7.52,7.52,0,0,0-.81,1.09l-2.55,4.28.25.15a.92.92,0,0,1,.16-.12c.09,0,.2,0,.36.07l7.72,4.62c.15.09.23.17.23.27s0,.16,0,.2l.25.15,1.68-2.81-.25-.15A.68.68,0,0,1,233.37,433Zm-3.64-4.11-.93,1.55L226.38,429l1-1.68a1.33,1.33,0,0,1,.82-.71,1.57,1.57,0,0,1,1.07.3,1.43,1.43,0,0,1,.76.84A1.69,1.69,0,0,1,229.73,428.86Zm9.07-12.34a6.05,6.05,0,0,0-2.05-1.39,5.9,5.9,0,0,0-2.4-.54,4.61,4.61,0,0,0-3.52,1.52,5.2,5.2,0,0,0-1,1.52,5.68,5.68,0,0,0-.43,1.76,4.61,4.61,0,0,0,.22,1.88,5,5,0,0,0,1.07,1.75,5.86,5.86,0,0,0,2,1.38,5.77,5.77,0,0,0,2.41.55,5,5,0,0,0,2-.43,4.57,4.57,0,0,0,1.49-1.12,6.47,6.47,0,0,0,1-1.54,6.1,6.1,0,0,0,.45-1.74,4.52,4.52,0,0,0-.19-1.86A4.77,4.77,0,0,0,238.8,416.52Zm-1.45,4.38a2.5,2.5,0,0,1-.59.84,2.73,2.73,0,0,1-.85.54,2.77,2.77,0,0,1-1,.15,3.34,3.34,0,0,1-1.18-.29,3.53,3.53,0,0,1-1-.66,2.45,2.45,0,0,1-.59-.86,2.57,2.57,0,0,1-.19-1,2.77,2.77,0,0,1,.21-1,2.68,2.68,0,0,1,.6-.84,2.45,2.45,0,0,1,1.88-.68,3.29,3.29,0,0,1,1.17.29,3.2,3.2,0,0,1,1,.65,2.55,2.55,0,0,1,.78,1.84A2.59,2.59,0,0,1,237.35,420.9ZM94.55,473.33c.16.08.2.18.14.32a5.47,5.47,0,0,1-.61.8c-.4.48-4.9,5.81-5.65,6.72a.29.29,0,0,1-.2.11.58.58,0,0,1-.23,0l-.1.26,2.6,1.07.1-.27s-.07,0-.13-.06a.17.17,0,0,1,0-.21,1.57,1.57,0,0,1,.18-.25c.09-.11.79-.93.88-1.05l4.12,1.54v1.38a.71.71,0,0,1-.05.3c0,.1-.08.16-.15.15a.39.39,0,0,1-.15,0l-.1.27,2.94,1,.1-.26a.3.3,0,0,1-.18-.13.33.33,0,0,1-.09-.23c0-.42,0-8.8,0-9.2a3.43,3.43,0,0,1,0-.66.23.23,0,0,1,.31-.13l.1-.27-3.71-1.39Zm1.07,7.14-3-1.1L95.57,476ZM23.68,402.62a7,7,0,0,0,1.8-.14l5.22-1.1a.32.32,0,0,1,.36.09,1.27,1.27,0,0,1,.16.35l.29-.06-.82-3.31-.27.06a.49.49,0,0,1-.06.22c0,.09-.13.14-.3.19l-5.65,1.18a1.48,1.48,0,0,1-1.36-.24,2.32,2.32,0,0,1-.67-1.27,2.18,2.18,0,0,1,.1-1.43,1.5,1.5,0,0,1,1.16-.77l5.64-1.19a.41.41,0,0,1,.36.05.63.63,0,0,1,.12.18l.28-.06L29.45,392l-.28.06a1.63,1.63,0,0,1,0,.39c0,.11-.12.19-.29.23l-5.23,1.1a7.33,7.33,0,0,0-1.69.59,3.9,3.9,0,0,0-1.29,1,3.35,3.35,0,0,0-.67,1.53,6,6,0,0,0,.09,2.13,5.63,5.63,0,0,0,.78,2,3.41,3.41,0,0,0,1.23,1.14A3.83,3.83,0,0,0,23.68,402.62Zm9,7a4,4,0,0,1,.53-.38.23.23,0,0,1,.3.15l.28-.09-1.23-3.75-.26.08c0,.17,0,.27-.15.31a6,6,0,0,1-1,0c-.62,0-7.61-.23-8.77-.24a.3.3,0,0,1-.21-.1.41.41,0,0,1-.13-.19l-.27.09.78,2.7.28-.1a.26.26,0,0,1,0-.15c0-.05.05-.11.16-.14a.75.75,0,0,1,.29,0l1.36.05L25.92,412c-.1.06-1,.76-1.08.84a1.21,1.21,0,0,1-.26.16c-.11,0-.17,0-.21,0a.45.45,0,0,1-.07-.14l-.27.09,1,2.92.27-.09a.44.44,0,0,1,0-.23.37.37,0,0,1,.12-.2C25.81,415.06,32.35,409.82,32.66,409.58Zm-1.87-1.52-3.45,2.8-1-3Zm100.62,72.63a1.18,1.18,0,0,1,.3.1.3.3,0,0,1,.15.34c0,.05-.06.15-.2.32s-.33.38-.56.64-3,3.07-3.17,3.27l.13-4.35a.34.34,0,0,1,.18-.33,1.53,1.53,0,0,1,.37-.08v-.29l-3.53-.21v.29a.42.42,0,0,1,.31.07.44.44,0,0,1,.15.37l-.3,9a.41.41,0,0,1-.16.36.56.56,0,0,1-.33.06v.28l3.54.2,0-.29a.79.79,0,0,1-.35-.1c-.12,0-.18-.16-.17-.34l.06-1.94,1.71-1.93c0,.12,1.72,3.49,1.81,3.67a1.63,1.63,0,0,1,.11.35.3.3,0,0,1-.2.32,1.28,1.28,0,0,1-.34.06v.28l3.83,0v-.28a.82.82,0,0,1-.24-.1.84.84,0,0,1-.18-.27l-2.93-5.83c.25-.23,1.64-1.81,2-2.18a13.18,13.18,0,0,1,1-1,1.53,1.53,0,0,1,.76-.48l0-.29-3.77,0ZM86,476.39l1.38-2.74-.19-.1c-.11.18-.21.3-.3.33a.3.3,0,0,1-.25,0l-3.18-1.61.87-1.71,4.92,2.51a.3.3,0,0,1,.16.2.62.62,0,0,1-.1.45l.2.11L90.93,471l-.2-.09c-.1.18-.19.3-.3.31a.39.39,0,0,1-.24,0l-7.65-3.89-.14.26a1,1,0,0,1,.28.24.29.29,0,0,1,0,.37l-4.07,8c-.08.15-.17.23-.29.22a1.55,1.55,0,0,1-.36-.08l-.13.24,7.51,3.83a.74.74,0,0,1,.28.19c0,.06,0,.2,0,.43l.16.08,1.4-2.77-.19-.11c-.25.33-.48.42-.7.31l-4.81-2.43L82.55,474l3.17,1.62a.29.29,0,0,1,.17.2.65.65,0,0,1-.1.44Zm29.36,3.72a4.83,4.83,0,0,0-1.39-1.28,5.73,5.73,0,0,0-1.7-.65,5.4,5.4,0,0,0-1.8-.07,4.69,4.69,0,0,0-1.8.61,4.77,4.77,0,0,0-1.49,1.39,5.8,5.8,0,0,0-.94,2.27,5.93,5.93,0,0,0,0,2.47,4.93,4.93,0,0,0,.82,1.86,5.06,5.06,0,0,0,1.41,1.24,6.09,6.09,0,0,0,1.69.63,6.47,6.47,0,0,0,1.82.09,4.72,4.72,0,0,0,1.77-.57,5,5,0,0,0,1.51-1.37,7,7,0,0,0,1-4.75A5.08,5.08,0,0,0,115.35,480.11Zm-1.63,3.83a3.25,3.25,0,0,1-.45,1.12,2.28,2.28,0,0,1-.72.76,2.51,2.51,0,0,1-.92.39,2.39,2.39,0,0,1-1,0,2.48,2.48,0,0,1-.94-.4,2.57,2.57,0,0,1-.7-.73,2.51,2.51,0,0,1-.37-1,3.48,3.48,0,0,1,0-1.19,3.54,3.54,0,0,1,.44-1.12,2.52,2.52,0,0,1,2.68-1.14,2.6,2.6,0,0,1,.95.4,2.53,2.53,0,0,1,.69.73,2.62,2.62,0,0,1,.36,1A3.28,3.28,0,0,1,113.72,483.94ZM76.21,463.47a.27.27,0,0,1-.24-.05l-7-5-.16.23a.93.93,0,0,1,.23.3q.11.14-.06.36l-5.24,7.32a.29.29,0,0,1-.32.17,1.08,1.08,0,0,1-.35-.13l-.17.23,6.86,4.91a.82.82,0,0,1,.25.24.73.73,0,0,1-.06.42l.15.11,1.81-2.53-.18-.14c-.29.28-.53.35-.75.2L66.62,467l1.36-1.9,2.9,2.07a.34.34,0,0,1,.12.21c0,.12,0,.25-.16.43l.19.13,1.78-2.5-.18-.13a.64.64,0,0,1-.34.29.39.39,0,0,1-.25-.05l-2.89-2.07,1.11-1.56,4.49,3.22a.33.33,0,0,1,.13.22c0,.11,0,.25-.19.44l.2.14,1.84-2.59-.18-.13C76.42,463.38,76.31,463.47,76.21,463.47ZM41.53,428c.16-.07.27-.09.36,0a1,1,0,0,1,.2.2l.25-.14-2.05-3.66-.25.13a1.77,1.77,0,0,1,.08.25.14.14,0,0,1-.08.16,3,3,0,0,1-.59.11l-3.71.29c.1-.08,2.1-2.35,2.38-2.65a3.31,3.31,0,0,1,.52-.51.13.13,0,0,1,.17,0,2.12,2.12,0,0,0,.15.21l.26-.13-1.8-3.77-.25.13a.75.75,0,0,1,0,.31c0,.1-.07.19-.22.27l-8,4.12a.39.39,0,0,1-.37,0,1.51,1.51,0,0,1-.21-.23l-.25.14,1.25,2.69.26-.12a1,1,0,0,1-.09-.39c0-.11.07-.2.22-.29L35.89,422l0,0-4.83,5.56,7.37-.61v0l-6.06,3.12a.32.32,0,0,1-.36,0,.94.94,0,0,1-.25-.27l-.24.13,1.54,2.76.25-.13a.8.8,0,0,1,0-.27c0-.1.08-.2.23-.27Zm-1.15,15c.25-.35,5.12-7.17,5.36-7.49a4.64,4.64,0,0,1,.41-.51.23.23,0,0,1,.34.07l.23-.15-2.21-3.3-.22.16a.23.23,0,0,1-.07.34,8.86,8.86,0,0,1-1,.29l-8.49,2.14a.31.31,0,0,1-.23,0,.71.71,0,0,1-.18-.16l-.24.16,1.5,2.38.22-.16a.32.32,0,0,1-.05-.14c0-.06,0-.12.11-.18a.55.55,0,0,1,.28-.1l1.32-.33,2.43,3.66c-.06.09-.71,1-.8,1.1a.81.81,0,0,1-.21.23c-.1.06-.16.06-.2,0l-.11-.12-.23.15,1.8,2.54.23-.16a.69.69,0,0,1-.07-.23A.25.25,0,0,1,40.38,443Zm-1.16-7.43,4.31-1L41,438.17Zm23.6,22.94c.34,0,2.42-.36,2.93-.42s1-.12,1.39-.14a1.68,1.68,0,0,1,.9.1l.18-.2-2.89-2.4-.18.21c0,.09.12.18.18.29a.38.38,0,0,1-.1.35,1.07,1.07,0,0,1-.38.12l-.83.14c-.33,0-4.25.5-4.53.53l2.86-3.29a.3.3,0,0,1,.34-.13,1.81,1.81,0,0,1,.35.16l.17-.22-2.59-2.4-.2.23a.39.39,0,0,1,.2.25.38.38,0,0,1-.12.38l-5.92,6.78a.42.42,0,0,1-.34.17.51.51,0,0,1-.3-.17l-.19.22,2.63,2.4.19-.22a.88.88,0,0,1-.2-.3.29.29,0,0,1,.08-.36l1.27-1.47,2.55-.42c0,.12-.87,3.78-.93,4a1.62,1.62,0,0,1-.11.34.32.32,0,0,1-.38.11.86.86,0,0,1-.29-.15l-.18.2,2.94,2.46.18-.21a.72.72,0,0,1-.12-.23.67.67,0,0,1,0-.33Zm-8.19-13a1.07,1.07,0,0,1,.32.23l.22-.18L52.91,443l-.21.17a1,1,0,0,1,.06.22c0,.09,0,.19-.19.3l-4.46,3.66a1.49,1.49,0,0,1-1.33.41,2.24,2.24,0,0,1-1.17-.81,2.4,2.4,0,0,1-.58-1.31,1.52,1.52,0,0,1,.67-1.22l4.47-3.68c.14-.1.25-.14.34-.11a.41.41,0,0,1,.2.09l.23-.17-2.1-2.72-.21.18a2.92,2.92,0,0,1,.17.36c0,.11,0,.22-.16.33l-4.13,3.41a6.6,6.6,0,0,0-1.24,1.3,3.9,3.9,0,0,0-.66,1.51,3.12,3.12,0,0,0,.12,1.67,5.47,5.47,0,0,0,1.08,1.85,5.55,5.55,0,0,0,1.58,1.4,3.33,3.33,0,0,0,1.63.44,4.07,4.07,0,0,0,1.61-.35,8.37,8.37,0,0,0,1.52-1l4.11-3.39C54.41,445.49,54.53,445.46,54.63,445.52Zm92.13,44.22a.33.33,0,0,1-.16-.17c-.17-.39-3.66-8-3.82-8.37a4.35,4.35,0,0,1-.24-.63c0-.13.08-.21.23-.24l0-.29-3.94.27v.29c.17,0,.26.08.27.21a6.19,6.19,0,0,1-.24,1c-.15.59-2.07,7.31-2.37,8.43a.32.32,0,0,1-.14.2.52.52,0,0,1-.21.07v.28l2.81-.08,0-.29h-.16a.17.17,0,0,1-.1-.18,1.24,1.24,0,0,1,.06-.31c0-.13.34-1.18.37-1.31l4.38-.3c.05.11.52,1.12.56,1.25a.81.81,0,0,1,.09.29c0,.11,0,.18-.08.2l-.15,0,0,.28,3.09-.31v-.27A.69.69,0,0,1,146.76,489.74Zm-7.18-2.86,1.29-4.24,1.86,4ZM246.51,395.1a4.75,4.75,0,0,0-1.39-1.48,5.54,5.54,0,0,0-2.29-.92,5.86,5.86,0,0,0-2.46,0,4.83,4.83,0,0,0-3.13,2.24,5.4,5.4,0,0,0-.7,3.51,4.86,4.86,0,0,0,.63,1.79,5,5,0,0,0,1.39,1.48,6.13,6.13,0,0,0,2.28.92,5.91,5.91,0,0,0,2.47,0,5.24,5.24,0,0,0,1.85-.84,4.64,4.64,0,0,0,1.23-1.42,6,6,0,0,0,.63-1.7,5.75,5.75,0,0,0,.06-1.81A4.54,4.54,0,0,0,246.51,395.1Zm-1.88,3.1a2.47,2.47,0,0,1-.39.94,2.56,2.56,0,0,1-.72.71,2.46,2.46,0,0,1-1,.37,3.2,3.2,0,0,1-1.19,0,3.37,3.37,0,0,1-1.13-.43,2.53,2.53,0,0,1-.76-.73,2.61,2.61,0,0,1-.4-.92,2.55,2.55,0,0,1,0-1,2.53,2.53,0,0,1,.4-.95,2.74,2.74,0,0,1,.71-.69,2.51,2.51,0,0,1,1-.37,3.2,3.2,0,0,1,1.19,0,3.27,3.27,0,0,1,1.14.44,2.59,2.59,0,0,1,.76.71,2.63,2.63,0,0,1,.39.93A2.5,2.5,0,0,1,244.63,398.2Zm-71-8.08,3.29-1.51c0,.18.1,1.92.12,2.49l2-2c-.14-.94-.55-6.41-.81-8.45l-.07,0c-1.2,1.85-6.58,10.61-7.33,11.83l1,.66C172.35,392.48,173.48,390.47,173.67,390.12Zm3.28-5.65c0,.4,0,2.14,0,2.68l-2.21,1C175.17,387.52,176.55,385.13,177,384.47Zm-83.51-1.76c-.08,1.08-.32,4.72-.38,5.36-.65-1-3.73-6.15-4.42-7.26l-.07,0c0,1.61.41,8,.43,9l1.87,1.65c-.08-1.06-.44-5.45-.45-5.79.37.58,3,4.81,4,6.38l0,0c.15-1.42.3-4,.3-4.56h0c.4.77,3,6.16,3.38,6.88l1.22-.25c-.37-.69-5.14-10-5.91-11.4Zm10.25,2.36-4.38-1.82.42,1.86,4.41,1.84ZM102,387c-.52,1.78-1.63,6.54-1.89,7.36l1.82,1.73c.1-.5.38-2,.43-2.16l3.24,1.31c.16.29,1.09,2,1.44,2.67l1.18-.59c-.64-1-5.14-8.67-6.15-10.29Zm.92,3.31c.31.59,1.46,2.66,1.78,3.23l-2.18-.88C102.57,392.21,102.84,390.69,102.9,390.33Zm13.94,1.84c-.66,1.9-2.17,7-2.51,7.84l1.73,1.93c.15-.52.54-2.14.61-2.31l3.21,1.55c.14.33,1,2.25,1.27,2.94l1.25-.58c-.58-1.16-4.57-9.55-5.49-11.33Zm.67,3.61c.29.63,1.3,2.92,1.58,3.55l-2.17-1.05C117,397.77,117.44,396.15,117.51,395.78Zm13.81-.66c-.42.88-2.28,4.88-2.7,5.68-.34-.7-2.15-4.66-2.68-5.83h-.08c-.4,1.17-2.55,8.35-2.76,8.94l1.54,1.06c.17-.61,1.34-4.85,1.5-5.51h0c.21.59,1.45,3.39,2.21,5h.08c.68-1.23,2.32-4.59,2.56-5,.13.36,1.44,4.85,1.77,5.93l1.71-.95c-.36-1.06-2.48-7.56-3.1-9.25Zm32.56-4.05h0c.05.52.36,3,.62,4.43l.06,0c.94-1.55,3.36-5.71,3.7-6.25,0,.33-.07,4.59-.07,5.62l1.8-1.63c0-1-.09-7.22-.17-8.77l-.08,0c-.62,1.08-3.42,6.11-4,7.12-.1-.64-.6-4.32-.75-5.36l-.07,0c-.68,1.39-5,10.65-5.29,11.33l1.27.22C161.21,397.1,163.54,391.83,163.88,391.07ZM138.2,402.88l3.54-.22c.12.22.7,1.76,1,2.38l1.68-1.27c-.58-1.08-3.18-6.78-4.35-9.08H140c-.73,1.49-3.85,8.57-4.29,9.55l1.61,1.17C137.51,404.83,138.1,403.15,138.2,402.88ZM140,398.2c.16.44,1,2.34,1.21,2.91l-2.39.15Zm-28.71-.48-.61-3.26c-.34-1.74-.81-4.5-.85-4.81l-2-.86c.06.27.73,3.68.76,3.91l.35,1.83c.07.33.66,3.45.73,4.16.67.27,3.72,1.76,4,1.86l-.39-2C112.18,398.18,111.52,397.84,111.24,397.72Zm38.5,2.62c-.87.41-2,.88-2.27,1l.44-3.13c.26-1.75.71-4.58.77-4.91l-1.79.71c0,.27-.5,3.7-.53,3.92l-.26,1.86c0,.33-.48,3.31-.63,4.07.57-.23,3.79-1.39,4-1.48Zm3.48-1.94,3.26-1.5c.08.17.46,1.78.6,2.3l1.77-1.89c-.33-.86-1.78-5.89-2.44-7.76l-.07,0c-1,1.75-5.11,10-5.71,11.12l1.25.58C152.23,400.59,153.07,398.71,153.22,398.4Zm2.48-5.31c.05.37.45,2,.55,2.48l-2.21,1C154.34,396,155.39,393.71,155.7,393.09ZM133.56,278.87A96.15,96.15,0,1,0,229.72,375,96.16,96.16,0,0,0,133.56,278.87ZM137,305.39s-.69,6.07,1.82,5.58c3.19-.62,5.29-7.1,16.07-9.66,0,0-2.41,6.82-.34,11.77,2.06,6.36,5.37,10.25,2,19.81-3.32,7.43-7.55,9.17-7.55,9.17h-4c2.25-2.27,5.29-5.87,6.28-9.51,1.16-4.28.16-6.85-.83-9.33a20.64,20.64,0,0,1-1.08-3.25,25.76,25.76,0,0,1-.19-8.39l.57-3.51-2.91,2c-1.34.93-3.1,1.89-5,2.91-8.34,4.54-20.75,11.31-20.18,29h-5.61s-4.19-5.9.37-16.55C121.72,313.19,137,305.39,137,305.39Zm9.45,15.21a22.44,22.44,0,0,0,1.21,3.71,12,12,0,0,1,1.14,4.61,10.43,10.43,0,0,1-.42,2.83c-1.25,4.64-7,9.63-7.78,10.3H124.68c0-.38,0-.75,0-1.12,0-15.12,10.69-20.95,18.64-25.28l2.62-1.45c0,.35,0,.73,0,1.13A24.72,24.72,0,0,0,146.42,320.6ZM153,344.37a1.6,1.6,0,0,1,0,3.2H114.28a1.6,1.6,0,0,1,0-3.2Zm-32.8,21.38c-5-5.2-14.62-13.4-20.24-17.05l-3.61-9.58C98.85,339.8,108,344.47,120.21,365.75Zm1.39,6L87.21,357l-4.7-12.39C88.71,345.75,101.67,351.86,121.6,371.73Zm-5.33-21.82h34.88c-2.2,4.27-7.88,10-17.52,10S118.06,354.18,116.27,349.91Zm51-1.21c-5.63,3.65-15.2,11.85-20.26,17.05,12.22-21.28,21.39-25.95,23.87-26.63Zm17.46-4.09L180.08,357l-34.4,14.73C165.61,351.86,178.57,345.75,184.77,344.61ZM124.09,466.12c-1.49-.16-3.4-.42-3.4-.42-6-4.66-11.56-12.61-16.14-23.45a119.9,119.9,0,0,1-4.27-11.89H73.81c9,15.26,21.54,27,36.14,33.17,0,0-.71-.21-1.42-.38-1.87-.45-5.1-1.59-5.1-1.59-1.63-.53-5.49-2.11-5.49-2.11a85.34,85.34,0,0,1-26.57-29.09H60.52c-.1-.11-1.57-2.12-1.57-2.12H70.24a111.89,111.89,0,0,1-13-52.15H41.91V374H57.25a111.92,111.92,0,0,1,13.1-52.14H58.89l1.59-2.12h11l0,0a84.88,84.88,0,0,1,27.44-29.52,81.44,81.44,0,0,1,8.51-3s2.48-.71,3.37-.94l.65-.13c-15.18,6-28.27,17.92-37.54,33.62h26.45a118.62,118.62,0,0,1,4.18-11.7c4.68-11.1,10.34-19.16,16.55-23.77,0,0,2.46-.32,3.17-.38l1.6-.12c-9.51,4.7-17.75,17.83-23.33,36h12.62s-.78,1.31-1.2,2.12H101.88Q99.95,328.51,98.5,336l-.82-.34a9.42,9.42,0,0,0-1.18-.37c.91-4.67,2-9.15,3.23-13.43h-27A109.54,109.54,0,0,0,59.37,374H75.24l.81,2.12H59.36a109.48,109.48,0,0,0,13.29,52.15h27c-1-3.56-2-7.23-2.76-11.05l2.38,1q1.14,5.2,2.53,10H121.9l4.78,2.12H102.47c5.49,17.91,13.56,31,22.89,35.89Zm-1.25-8.52a.6.6,0,0,0,.24,0v.18h-2.83v-.18a.62.62,0,0,0,.25,0c.07,0,.1-.09.1-.2v-4.51L120,453a.76.76,0,0,0-.32.12.25.25,0,0,0-.15.15.63.63,0,0,0,0,.23h-.17v-2.3h.17s0,.12,0,.21.06.13.14.13a.57.57,0,0,0,.16,0l.28-.11.3-.11.18-.08v-.45c0-.1,0-.17-.1-.19a.32.32,0,0,0-.18-.06v-.17h2.78v.17a.53.53,0,0,0-.26.06c-.07,0-.1.09-.1.19v6.62C122.74,457.51,122.77,457.57,122.84,457.6Zm9.29-2a3.55,3.55,0,0,1-.95,1.24,4.48,4.48,0,0,1-1.38.75,5.75,5.75,0,0,1-1.66.24,8,8,0,0,1-1-.06,5.27,5.27,0,0,1-.8-.14l-.54-.17a.93.93,0,0,0-.24-.07.47.47,0,0,0-.33.16l-.17-.08,1.13-1.9.14.07v.13a.4.4,0,0,0,.16.32,1,1,0,0,0,.41.22,2.37,2.37,0,0,0,.58.12,3.89,3.89,0,0,0,.68,0,3.28,3.28,0,0,0,.88-.12,2.41,2.41,0,0,0,.75-.38,1.94,1.94,0,0,0,.56-.61,2.11,2.11,0,0,0,.25-.88,8.73,8.73,0,0,1-1.35.55,4.34,4.34,0,0,1-1.32.19,3.35,3.35,0,0,1-1-.17,3,3,0,0,1-.88-.5,2.34,2.34,0,0,1-.6-.79,2.18,2.18,0,0,1-.23-1,2,2,0,0,1,.31-1.15,2.77,2.77,0,0,1,.82-.78,3.5,3.5,0,0,1,1.09-.43,5.34,5.34,0,0,1,1.17-.14,5.46,5.46,0,0,1,1.62.23,3.27,3.27,0,0,1,1.24.69,3,3,0,0,1,.8,1.15,4.24,4.24,0,0,1,.29,1.63A3.76,3.76,0,0,1,132.13,455.64Zm-.83-14.06-1.21-13.78h0l-1.27-14.41a.24.24,0,0,0-.25-.23.23.23,0,0,0-.22.23l-.78,13.3-34-15.08L72,354.87l53.61,22.24-1.49-16.84a22.74,22.74,0,0,0,7.57,1.83L133.23,390a.39.39,0,0,0,.41.37.4.4,0,0,0,.41-.37l1.52-27.88a22.26,22.26,0,0,0,7.57-1.87l-1.49,16.88,53.62-22.24c-1.63,4.26-21.19,55.95-21.5,56.74l-34.06,15.08-.77-13.3a.24.24,0,0,0-.23-.23.23.23,0,0,0-.23.23L137.2,427.8h0L136,441.59a2.34,2.34,0,0,1-4.67,0Zm10.1,14.28a3.62,3.62,0,0,1-.84,1.19,3.71,3.71,0,0,1-1.22.79,4.16,4.16,0,0,1-1.5.27,4.05,4.05,0,0,1-1.48-.27,3.6,3.6,0,0,1-1.24-.79,3.48,3.48,0,0,1-.84-1.19,3.91,3.91,0,0,1,0-3.05,3.62,3.62,0,0,1,.84-1.2,4.16,4.16,0,0,1,1.24-.81,3.87,3.87,0,0,1,1.48-.29,4,4,0,0,1,1.5.29,4.33,4.33,0,0,1,1.22.81,3.77,3.77,0,0,1,.84,1.2,4,4,0,0,1,0,3.05Zm66.68-134H197A111.71,111.71,0,0,1,210.09,374h15l0,2.12h-15a111.91,111.91,0,0,1-13,52.15H208s-1.2,1.67-1.55,2.12H196a85.51,85.51,0,0,1-26,28.73l-.81.32c-.94.46-4.78,1.9-4.78,1.9-2.44.89-6.39,2-6.39,2,14.36-6.24,26.72-17.88,35.57-32.94H167a122.5,122.5,0,0,1-4.26,11.89c-4.57,10.8-10.05,18.73-16.06,23.4,0,0-1.07.18-1.72.24l-2.94.31c9.29-5,17.33-18,22.8-35.84h-24.3l4.79-2.12h20.14c.92-3.22,1.78-6.57,2.54-10.06l2.36-1.05c-.79,3.84-1.74,7.53-2.76,11.11H194.7A109.58,109.58,0,0,0,208,376.09H191.2L192,374h16a109.54,109.54,0,0,0-13.38-52.14h-27c1.23,4.26,2.32,8.7,3.22,13.34l-.42.14c-.55.18-1.57.59-1.57.59-1-4.94-2.09-9.65-3.37-14.07h-4a13.58,13.58,0,0,0-.53-2.12h3.92c-5.58-18.14-13.82-31.27-23.33-36,0,0,2.62.26,3.24.34s1.63.23,1.63.23c6.17,4.63,11.79,12.66,16.45,23.7a124,124,0,0,1,4.19,11.7h26.46c-9.18-15.55-22.1-27.4-37.09-33.43,0,0,5.18,1.39,8.11,2.47,0,0,3,1.11,3.42,1.32s1.11.46,1.11.46a85,85,0,0,1,26.88,29.18h10.65ZM147.17,457.61l.24.05v.17h-3.15v-.17a.39.39,0,0,0,.27-.11,1.55,1.55,0,0,0,.19-.24l3.15-5.27h-4.59a.25.25,0,0,0-.16.06.3.3,0,0,0-.1.26h-.16V450H143a.34.34,0,0,0,.1.29.26.26,0,0,0,.16.07h6.39a.28.28,0,0,0,.16-.07.3.3,0,0,0,.09-.26h.17v1.81l-2.74,5-.19.32a.77.77,0,0,0-.1.25A.2.2,0,0,0,147.17,457.61Zm-17.64-5.67a1.94,1.94,0,0,0-.51-.18,2.78,2.78,0,0,0-.94,0,1.82,1.82,0,0,0-.51.18,1.14,1.14,0,0,0-.41.31.81.81,0,0,0-.16.52.83.83,0,0,0,.16.52,1.17,1.17,0,0,0,.41.32,2.16,2.16,0,0,0,.51.16,2.23,2.23,0,0,0,.94,0,2.32,2.32,0,0,0,.51-.16,1.09,1.09,0,0,0,.41-.32.78.78,0,0,0,.17-.52.76.76,0,0,0-.17-.52A1.06,1.06,0,0,0,129.53,451.94Zm9.66.92a1.59,1.59,0,0,0-.54-.49,1.73,1.73,0,0,0-.81-.18,1.66,1.66,0,0,0-.8.18,1.53,1.53,0,0,0-.55.49,2.28,2.28,0,0,0-.31.69,2.93,2.93,0,0,0-.1.78,2.88,2.88,0,0,0,.1.78,2.28,2.28,0,0,0,.31.69,1.45,1.45,0,0,0,.55.49,1.66,1.66,0,0,0,.8.18,1.73,1.73,0,0,0,.81-.18,1.49,1.49,0,0,0,.54-.49,1.88,1.88,0,0,0,.31-.69,2.88,2.88,0,0,0,.1-.78,2.93,2.93,0,0,0-.1-.78A1.88,1.88,0,0,0,139.19,452.86Z" transform="translate(-3.5 -245)"/><path class="cls-2" d="M314.93,301.38c0-11.31,0-13.33-.14-15.65-.14-2.47-.73-3.62-3.11-4.13a13.27,13.27,0,0,0-2.47-.22c-.29,0-.58-.14-.58-.43s.36-.58,1.16-.58c3.26,0,7.67.21,8.33.21s5-.21,7.17-.21c.8,0,1.16.14,1.16.58s-.29.43-.57.43a10.17,10.17,0,0,0-1.81.22c-2,.28-2.55,1.59-2.69,4.13-.14,2.32-.14,4.34-.14,15.65v10.14c0,10.43,2.32,14.93,5.43,17.9,3.55,3.33,6.81,4,10.95,4A15.24,15.24,0,0,0,349,328.19c3.33-4.13,4.2-10.29,4.2-17.76v-9.05c0-11.31,0-13.33-.14-15.65-.15-2.47-.73-3.62-3.12-4.13a13.09,13.09,0,0,0-2.46-.22c-.29,0-.58-.14-.58-.43s.36-.58,1.16-.58c3.26,0,7.25.21,7.67.21s3.92-.21,6.1-.21c.79,0,1.15.14,1.15.58s-.29.43-.58.43a10.28,10.28,0,0,0-1.81.22c-1.95.43-2.53,1.59-2.68,4.13-.14,2.32-.14,4.34-.14,15.65v7.75c0,7.83-.88,16.53-6.67,21.67a21.21,21.21,0,0,1-14.93,5.36c-2.46,0-9.78-.29-14.92-5.15-3.56-3.4-6.31-8.47-6.31-19.05V301.38" transform="translate(-3.5 -245)"/><path class="cls-2" d="M375.8,326.74c.14,5.07.72,6.59,2.46,7a15.13,15.13,0,0,0,3.19.36.49.49,0,0,1,.51.51c0,.36-.44.51-1.16.51-3.63,0-6.17-.23-6.74-.23s-3.26.23-6.16.23c-.65,0-1-.08-1-.51a.49.49,0,0,1,.5-.51,10,10,0,0,0,2.61-.36c1.6-.44,1.81-2.1,1.81-7.68V290.8c0-2.46.37-3.11.87-3.11.73,0,1.81,1.23,2.47,1.88,1,1,10.29,10.87,20.14,21,6.3,6.52,13.12,13.84,15.07,15.87l-.65-30.87c-.08-4-.44-5.36-2.39-5.72a20.1,20.1,0,0,0-3.12-.29c-.43,0-.5-.37-.5-.58,0-.36.5-.44,1.23-.44,2.89,0,5.94.14,6.66.14s2.83-.14,5.44-.14c.65,0,1.15.08,1.15.44a.72.72,0,0,1-.72.58,6.94,6.94,0,0,0-1.52.15c-2.1.43-2.25,1.66-2.25,5.35l-.14,36.09c0,4-.07,4.42-.51,4.42-.65,0-1.3-.51-4.85-3.77-.66-.57-9.86-9.63-16.59-16.67-7.4-7.74-14.57-15.28-16.53-17.46l.73,29.06" transform="translate(-3.5 -245)"/><path class="cls-2" d="M438.83,317.25c0,5.94,0,10.8.3,13.33.21,1.81.43,3,2.32,3.26a24.61,24.61,0,0,0,2.89.29.49.49,0,0,1,.51.51c0,.28-.29.51-1,.51-3.56,0-7.68-.23-8-.23s-4.34.23-6.3.23c-.65,0-1-.15-1-.51a.5.5,0,0,1,.51-.51,8.76,8.76,0,0,0,2-.29c1.23-.29,1.45-1.45,1.67-3.26.29-2.53.36-7.39.36-13.33V306.38c0-9.56,0-11.31-.15-13.26-.14-2.1-.65-3.05-2-3.34a11.82,11.82,0,0,0-2-.21.55.55,0,0,1-.51-.51c0-.37.29-.51,1-.51,2.11,0,6.09.14,6.45.14s4.42-.14,6.38-.14c.73,0,1,.14,1,.51a.62.62,0,0,1-.51.51,6.92,6.92,0,0,0-1.6.15c-1.73.35-2.1,1.22-2.24,3.4-.08,1.95-.08,3.7-.08,13.26v10.87" transform="translate(-3.5 -245)"/><path class="cls-2" d="M477.6,327.1c3.7-8.25,12-29.27,13.41-33.7a10.49,10.49,0,0,0,.58-2.31,1.3,1.3,0,0,0-.87-1.31,7.65,7.65,0,0,0-2.17-.21c-.37,0-.73-.22-.73-.51s.43-.51,1.45-.51c2.53,0,5.44.14,6.23.14.36,0,3.12-.14,5-.14.65,0,1,.14,1,.44s-.22.58-.73.58a5.86,5.86,0,0,0-3,.73c-.87.57-1.89,1.44-3.55,5.64-.73,1.74-3.85,9.14-7.11,16.67-3.91,9-6.73,15.65-8.18,18.69-1.74,3.7-2.1,4.64-2.75,4.64s-1.17-.79-2.39-3.77l-15.66-37.75c-1.45-3.48-2.31-4.12-4.41-4.64a12.87,12.87,0,0,0-2.48-.21c-.36,0-.5-.37-.5-.58,0-.36.65-.44,1.66-.44,3.05,0,6.67.14,7.47.14s3.48-.14,5.95-.14c1.16,0,1.73.14,1.73.44a.59.59,0,0,1-.65.58,7.77,7.77,0,0,0-2.32.29,1,1,0,0,0-.72,1.08c0,.8.8,2.69,1.74,5.15l12,31" transform="translate(-3.5 -245)"/><path class="cls-2" d="M512.53,306.38c0-9.56,0-11.31-.15-13.26-.14-2.1-.51-3.12-2.61-3.4a18.49,18.49,0,0,0-2.17-.15.62.62,0,0,1-.51-.51c0-.37.29-.51,1-.51,2.89,0,7,.14,7.39.14s13.77.08,15.21,0a28.5,28.5,0,0,0,2.91-.35,3.42,3.42,0,0,1,.87-.29c.21,0,.28.29.28.58s-.36,1.15-.5,2.9c-.08.57-.22,3.33-.37,4.05-.07.29-.28.65-.57.65s-.52-.29-.52-.79a6.51,6.51,0,0,0-.36-2.18c-.44-1-1.08-1.44-4.56-1.88-1.08-.15-8.48-.22-9.2-.22-.3,0-.37.22-.37.66v16.74c0,.43,0,.65.37.65.79,0,9.2,0,10.65-.15s2.46-.22,3.11-.87c.44-.43.73-.79.94-.79s.37.14.37.5a31.77,31.77,0,0,0-.51,3.4c-.14,1.24-.29,3.56-.29,4s-.15,1.16-.58,1.16-.43-.22-.43-.58a5.48,5.48,0,0,0-.29-2c-.22-.86-.8-1.6-3.27-1.88-1.73-.22-8.54-.29-9.63-.29-.37,0-.44.22-.44.43v5.15c0,2.1-.07,9.27,0,10.51.15,4.12,1.31,4.92,7.61,4.92,1.67,0,4.71,0,6.38-.65s2.53-1.81,2.89-4.27c.15-.73.29-.95.66-.95s.43.51.43.95a51.88,51.88,0,0,1-.87,5.94c-.43,1.59-1.08,1.59-3.55,1.59-4.78,0-8.48-.14-11.08-.22s-4.35-.15-5.29-.15c-.15,0-1.38,0-2.75.08s-2.69.15-3.7.15c-.65,0-1-.15-1-.51a.5.5,0,0,1,.51-.51,18.91,18.91,0,0,0,2-.29c1.23-.22,1.37-1.45,1.67-3.26a126.45,126.45,0,0,0,.36-13.33V306.38" transform="translate(-3.5 -245)"/><path class="cls-2" d="M550,306.38c0-9.56,0-11.31-.14-13.26-.15-2.1-.51-3.12-2.62-3.4a18.49,18.49,0,0,0-2.17-.15.6.6,0,0,1-.5-.51c0-.37.28-.51,1-.51,2.89,0,7.17.14,7.54.14.65,0,6-.14,8-.14,4,0,8.54.37,11.88,2.68a10.81,10.81,0,0,1,4.42,8.41c0,4.56-1.88,9-7.82,14.06,5.2,6.52,9.63,12.1,13.32,15.94,3.41,3.48,5.51,4.06,7.11,4.27a11.54,11.54,0,0,0,2.24.22.56.56,0,0,1,.58.51c0,.36-.36.51-1.52.51h-4c-3.63,0-5.22-.37-6.81-1.24-2.76-1.44-5.08-4.41-8.7-9.05-2.68-3.34-5.51-7.32-6.89-9a1,1,0,0,0-.87-.36l-8.11-.14c-.29,0-.43.14-.43.5v1.45c0,5.94,0,10.73.28,13.26.22,1.81.59,3,2.54,3.26a22.47,22.47,0,0,0,2.82.29.46.46,0,0,1,.52.51c0,.28-.3.51-1,.51-3.48,0-7.54-.23-7.83-.23-.08,0-4.36.23-6.31.23-.65,0-1-.15-1-.51a.49.49,0,0,1,.5-.51,8.85,8.85,0,0,0,2-.29c1.23-.29,1.38-1.45,1.67-3.26a126.45,126.45,0,0,0,.36-13.33V306.38m5.51,5.22a.9.9,0,0,0,.43.79c.94.51,4.21.94,7,.94a8.2,8.2,0,0,0,4.79-1.09c2.16-1.44,3.83-4.7,3.83-9.41,0-7.68-4.2-12.1-11-12.1a27.49,27.49,0,0,0-4.57.36.79.79,0,0,0-.5.73Z" transform="translate(-3.5 -245)"/><path class="cls-2" d="M595.13,334.28c-.87-.44-.94-.66-.94-2.32,0-3,.29-5.51.36-6.53,0-.65.15-1,.51-1s.58.22.58.73a9.62,9.62,0,0,0,.21,2.25c1,4.48,5.8,6.08,10.08,6.08,6.3,0,9.56-3.55,9.56-8.19,0-4.42-2.39-6.52-8-10.72l-2.9-2.18c-6.88-5.14-9.13-8.91-9.13-13.18,0-7.25,5.73-11.6,14.13-11.6a30.88,30.88,0,0,1,6.59.73,8.31,8.31,0,0,0,2.25.29c.51,0,.66.06.66.43a63.15,63.15,0,0,0-.3,6.52c0,.94-.07,1.38-.51,1.38s-.5-.29-.57-.8a11.41,11.41,0,0,0-.95-3c-.44-.73-2.53-3.05-8.26-3.05-4.63,0-8.47,2.32-8.47,6.67,0,3.91,2,6.16,8.26,10.44l1.81,1.23c7.75,5.29,10.43,9.56,10.43,14.85a12,12,0,0,1-5.94,10.51c-2.68,1.74-6.67,2.17-10.15,2.17a23.44,23.44,0,0,1-9.27-1.66" transform="translate(-3.5 -245)"/><path class="cls-2" d="M640.85,317.25c0,5.94,0,10.8.29,13.33.22,1.81.44,3,2.32,3.26a24.61,24.61,0,0,0,2.89.29.5.5,0,0,1,.52.51c0,.28-.3.51-1,.51-3.55,0-7.68-.23-8-.23s-4.35.23-6.3.23c-.65,0-1-.15-1-.51a.5.5,0,0,1,.51-.51,8.85,8.85,0,0,0,2-.29c1.23-.29,1.44-1.45,1.66-3.26.3-2.53.36-7.39.36-13.33V306.38c0-9.56,0-11.31-.14-13.26-.14-2.1-.65-3.05-2-3.34a11.82,11.82,0,0,0-2-.21.55.55,0,0,1-.52-.51c0-.37.3-.51,1-.51,2.1,0,6.09.14,6.45.14s4.42-.14,6.37-.14c.73,0,1,.14,1,.51a.62.62,0,0,1-.51.51,6.89,6.89,0,0,0-1.59.15c-1.74.35-2.1,1.22-2.25,3.4-.07,1.95-.07,3.7-.07,13.26v10.87" transform="translate(-3.5 -245)"/><path class="cls-2" d="M677.66,317.25c0,5.94,0,10.8.3,13.33.21,1.81.5,3,2.46,3.26a23.21,23.21,0,0,0,2.9.29.45.45,0,0,1,.5.51c0,.28-.29.51-1,.51-3.48,0-7.54-.23-7.91-.23s-4.7.23-6.59.23c-.72,0-1-.15-1-.51s.15-.43.5-.43a8.35,8.35,0,0,0,1.9-.3c1.3-.29,1.66-1.52,1.87-3.33.29-2.53.29-7.39.29-13.33V291.38l-9.2.15c-4,.07-5.5.5-6.45,2a10.25,10.25,0,0,0-1,2c-.15.5-.36.58-.66.58a.49.49,0,0,1-.43-.52c0-.64,1.31-6.15,1.38-6.66.15-.36.43-1.15.65-1.15a22.92,22.92,0,0,0,2.83.72c1.81.22,4.27.28,5,.28H688a32.38,32.38,0,0,0,4.55-.28c.95-.15,1.53-.29,1.82-.29s.29.36.29.72c0,1.89-.22,6.31-.22,7,0,.51-.29.8-.57.8s-.44-.22-.51-1.09l-.07-.65c-.22-1.88-1.6-3.26-7.69-3.4l-8-.15v25.87" transform="translate(-3.5 -245)"/><path class="cls-2" d="M720.56,319.13c0-3.33-.44-4.56-1.38-6.3-.51-.94-9.13-14.64-11.3-17.9a16.1,16.1,0,0,0-4.2-4.49,6.32,6.32,0,0,0-2.69-.87.65.65,0,0,1-.65-.58c0-.3.22-.44.8-.44,1.24,0,6,.14,6.31.14s3-.14,5.5-.14c.73,0,.87.14.87.44s-.44.43-1,.65-.8.51-.8,1a5.1,5.1,0,0,0,.86,2.39l11.6,19.19c1.31-2.6,9.28-15.79,10.44-17.82a6.59,6.59,0,0,0,1.08-3.19c0-.87-.29-1.37-1-1.59s-1-.44-1-.72.37-.37,1-.37c1.66,0,3.91.14,4.42.14s5-.14,6.24-.14c.43,0,.79.14.79.37a.74.74,0,0,1-.79.65,6.54,6.54,0,0,0-3,.79,11.14,11.14,0,0,0-3.18,3c-2.11,2.47-11.09,17-12.4,19.58-1.08,2.16-.79,4.12-.79,6.15v5.29c0,1,0,3.63.21,6.16.15,1.81.58,3,2.47,3.26a23.26,23.26,0,0,0,2.89.29.49.49,0,0,1,.51.51c0,.28-.36.51-1,.51-3.55,0-7.68-.23-8-.23s-4.34.23-6.23.23c-.72,0-1-.15-1-.51a.49.49,0,0,1,.5-.51,8.16,8.16,0,0,0,1.89-.29c1.3-.29,1.74-1.45,1.88-3.26.15-2.53.15-5.15.15-6.16v-5.29" transform="translate(-3.5 -245)"/><path class="cls-2" d="M329.64,394.72c0-13.4,8.84-22.61,19.2-22.61,9.85,0,15.36,5.8,15.36,14.93,0,10.59-7.53,22-20.21,21.81-9.28.07-14.35-6.3-14.35-14.13m5.8,1.17c0,6.15,2.68,10.86,9.35,10.79,9.71,0,13.61-13.91,13.61-21.59,0-5.58-2.89-10.8-9.12-10.8C339.2,374.29,335.44,387.84,335.44,395.89Z" transform="translate(-3.5 -245)"/><path class="cls-2" d="M394.05,374.49l-.43,2.54h-9.2l-3.19,17.45a57,57,0,0,1-4.42,14.57c-3.55,7.75-7.89,13.26-8.33,13.33-1.89-1.08-1.82-1.37-.87-2.6,4.27-4.64,6.16-10.66,7.17-16.74l4.5-26H372l.43-2.54h7.24c2.47-14.5,9.65-23.33,14.43-23.33,1.38,0,2.61,1.08,2.54,3.19-.08,2.75-1.45,4.27-2.33,4.27-1.37,0-.43-2.32-3-2.32-4.27,0-4.78,8-6.52,18.19h9.2" transform="translate(-3.5 -245)"/><path class="cls-2" d="M476.37,386.59c0,7,0,12.68.36,15.72.22,2.1.66,3.7,2.83,4,1,.14,2.61.29,3.26.29.44,0,.58.22.58.43,0,.37-.36.58-1.16.58-4,0-8.55-.21-8.91-.21s-4.93.21-7.1.21c-.79,0-1.16-.14-1.16-.58,0-.21.15-.43.58-.43a11.54,11.54,0,0,0,2.17-.29c1.45-.29,1.81-1.89,2.1-4,.37-3,.37-8.76.37-15.72V379a.42.42,0,0,0-.44-.44H439.13a.38.38,0,0,0-.44.44v7.6c0,7,0,12.68.36,15.72.22,2.1.65,3.7,2.83,4,1,.14,2.61.29,3.26.29.43,0,.58.22.58.43,0,.37-.36.58-1.16.58-4,0-8.55-.21-8.91-.21s-4.93.21-7.1.21c-.8,0-1.16-.14-1.16-.58,0-.21.14-.43.57-.43a11.53,11.53,0,0,0,2.18-.29c1.45-.29,1.81-1.89,2.1-4,.37-3,.37-8.76.37-15.72V373.84c0-11.31,0-13.33-.15-15.66s-.73-3.62-3.11-4.12a13.2,13.2,0,0,0-2.47-.22c-.29,0-.58-.15-.58-.43,0-.44.36-.59,1.16-.59,3.26,0,7.82.22,8.19.22s4.92-.22,7.1-.22c.8,0,1.16.15,1.16.59,0,.28-.3.43-.59.43a10.29,10.29,0,0,0-1.8.22c-2,.35-2.54,1.59-2.69,4.12-.14,2.33-.14,4.35-.14,15.66v1.52c0,.36.22.43.44.43h30.72c.22,0,.44-.07.44-.43v-1.52c0-11.31,0-13.33-.15-15.66s-.72-3.62-3.12-4.12a13,13,0,0,0-2.46-.22c-.28,0-.58-.15-.58-.43,0-.44.36-.59,1.16-.59,3.26,0,7.83.22,8.19.22s4.93-.22,7.1-.22c.79,0,1.16.15,1.16.59,0,.28-.29.43-.58.43a10.17,10.17,0,0,0-1.81.22c-1.95.35-2.54,1.59-2.68,4.12-.15,2.33-.15,4.35-.15,15.66v12.75" transform="translate(-3.5 -245)"/><path class="cls-2" d="M511,362.24c.8-2,1.09-2.38,1.53-2.38.65,0,.87.86,1.52,2.24,1.16,2.6,11.37,28,15.29,37.39,2.32,5.51,4,6.3,5.44,6.73a8.77,8.77,0,0,0,2.53.37c.36,0,.8.15.8.51s-.73.5-1.46.5c-.94,0-5.64,0-10.07-.14-1.23-.07-2.24-.07-2.24-.44s.15-.28.43-.43a1.15,1.15,0,0,0,.58-1.67l-5.72-14.13c-.15-.29-.21-.36-.58-.36H504.34c-.3,0-.5.15-.65.51l-3.62,9.85a12.79,12.79,0,0,0-.95,4.13c0,1.24,1.09,1.67,2.17,1.67h.59c.5,0,.65.22.65.51s-.36.5-.94.5c-1.52,0-5-.21-5.73-.21s-3.84.21-6.45.21c-.8,0-1.23-.14-1.23-.5a.56.56,0,0,1,.58-.51,18.24,18.24,0,0,0,1.88-.15c2.91-.36,4.14-2.53,5.37-5.65l15-38.55m7.11,25.66c.28,0,.28-.15.22-.44L512,370.57c-.36-.93-.72-.93-1.09,0L505,387.46c-.07.29,0,.44.22.44Z" transform="translate(-3.5 -245)"/><path class="cls-2" d="M585,398.48h.29c1.59-5.08,7.32-22.9,9.56-30.8a12.71,12.71,0,0,0,.73-3.84c0-1.09-.5-1.82-3.41-1.82a.61.61,0,0,1-.57-.57c0-.29.29-.43,1.08-.43,3.26,0,5.94.14,6.52.14.43,0,3.19-.14,5.15-.14.57,0,.87.14.87.35a.59.59,0,0,1-.58.65,10.54,10.54,0,0,0-2.18.3c-1.89.65-2.89,3.11-4.13,6.52-2.82,7.82-9.13,27.38-11.67,34.27-1.66,4.57-2,5.29-2.75,5.29s-1.23-.8-2.1-3.19l-12.46-33.7c-2.18,5.37-10.79,27.9-13.12,33.63-1.08,2.6-1.52,3.26-2.24,3.26s-1.16-.66-2.46-4.86L540.2,367c-1-3.27-1.66-4.06-3.33-4.64A12,12,0,0,0,534,362a.57.57,0,0,1-.59-.57c0-.29.44-.43,1-.43,3.34,0,6.89.14,7.53.14s3.48-.14,6.67-.14c.87,0,1.17.14,1.17.43a.64.64,0,0,1-.66.57,5.22,5.22,0,0,0-2.24.37,1.24,1.24,0,0,0-.88,1.31,35.66,35.66,0,0,0,1.24,5.72c1,3.91,7.53,26.52,8.33,29.06h.14l13.34-34.43c.94-2.46,1.38-2.82,1.74-2.82s.94.79,1.74,2.9L585,398.48" transform="translate(-3.5 -245)"/><path class="cls-2" d="M622.81,362.24c.79-2,1.09-2.38,1.52-2.38.66,0,.87.86,1.53,2.24,1.15,2.6,11.37,28,15.28,37.39,2.32,5.51,4.06,6.3,5.44,6.73a8.86,8.86,0,0,0,2.53.37c.37,0,.8.15.8.51s-.72.5-1.45.5c-.94,0-5.65,0-10.07-.14-1.24-.07-2.25-.07-2.25-.44s.15-.28.44-.43a1.16,1.16,0,0,0,.57-1.67l-5.72-14.13c-.14-.29-.21-.36-.58-.36H616.14a.68.68,0,0,0-.65.51l-3.62,9.85a12.75,12.75,0,0,0-.94,4.13c0,1.24,1.08,1.67,2.17,1.67h.58c.51,0,.65.22.65.51s-.36.5-.94.5c-1.52,0-5-.21-5.73-.21s-3.83.21-6.45.21c-.79,0-1.22-.14-1.22-.5a.55.55,0,0,1,.57-.51,18.65,18.65,0,0,0,1.89-.15c2.9-.36,4.13-2.53,5.36-5.65l15-38.55m7.1,25.66c.28,0,.28-.15.22-.44l-6.31-16.89q-.54-1.4-1.08,0l-6,16.89c-.07.29,0,.44.22.44Z" transform="translate(-3.5 -245)"/><path class="cls-2" d="M666.21,389.71c0,5.94,0,10.79.29,13.33.22,1.81.43,3,2.32,3.26a27.13,27.13,0,0,0,2.9.29.49.49,0,0,1,.5.51c0,.29-.29.5-1,.5-3.55,0-7.68-.21-8-.21s-4.35.21-6.3.21c-.65,0-1-.14-1-.5a.5.5,0,0,1,.51-.51,9.28,9.28,0,0,0,2-.29c1.24-.29,1.45-1.45,1.67-3.26.29-2.54.36-7.39.36-13.33V378.84c0-9.56,0-11.31-.14-13.27s-.65-3-2-3.33a11.9,11.9,0,0,0-2-.22.54.54,0,0,1-.51-.5c0-.36.29-.5,1-.5,2.1,0,6.09.14,6.45.14s4.42-.14,6.38-.14c.72,0,1,.14,1,.5a.6.6,0,0,1-.51.5,6.89,6.89,0,0,0-1.59.15c-1.74.36-2.1,1.23-2.25,3.4-.07,2-.07,3.71-.07,13.27v10.87" transform="translate(-3.5 -245)"/><path class="cls-2" d="M688.9,364.35c.57.64.64.87.64,1.22s-.36.44-.64.44a21.48,21.48,0,0,1-5.08-1.31,1.74,1.74,0,0,1-1.23-1.87c0-5.15,3.69-11.24,6.23-14.28a1.05,1.05,0,0,1,.94-.58.39.39,0,0,1,.36.36,2.5,2.5,0,0,1-.28.94,25.67,25.67,0,0,0-2.4,10.36,8.1,8.1,0,0,0,1.46,4.72" transform="translate(-3.5 -245)"/><path class="cls-2" d="M712.44,389.71c0,5.94,0,10.79.29,13.33.22,1.81.43,3,2.32,3.26a27.13,27.13,0,0,0,2.9.29.49.49,0,0,1,.5.51c0,.29-.28.5-1,.5-3.55,0-7.68-.21-8-.21s-4.34.21-6.3.21c-.65,0-1-.14-1-.5a.5.5,0,0,1,.51-.51,9.47,9.47,0,0,0,2-.29c1.23-.29,1.44-1.45,1.67-3.26.28-2.54.35-7.39.35-13.33V378.84c0-9.56,0-11.31-.14-13.27s-.65-3-2-3.33a11.9,11.9,0,0,0-2-.22.54.54,0,0,1-.51-.5c0-.36.29-.5,1-.5,2.11,0,6.09.14,6.45.14s4.42-.14,6.38-.14c.72,0,1,.14,1,.5a.6.6,0,0,1-.51.5,6.89,6.89,0,0,0-1.59.15c-1.74.36-2.1,1.23-2.24,3.4-.08,2-.08,3.71-.08,13.27v10.87" transform="translate(-3.5 -245)"/><path class="cls-2" d="M428.68,454.61c.16-.89.48-1.37.9-1.37s.74.27,1.43,1.64l14.42,29.79,14.37-30.16c.43-.85.7-1.27,1.16-1.27s.8.53,1,1.64l4.8,32.65c.48,3.33,1,4.87,2.6,5.34a10.7,10.7,0,0,0,3.27.53c.47,0,.84.05.84.37s-.63.58-1.37.58c-1.32,0-8.61-.16-10.72-.32-1.23-.11-1.54-.26-1.54-.58s.21-.42.58-.58.48-.8.27-2.27l-3.17-23.25h-.21l-11.52,24c-1.22,2.49-1.48,3-2,3s-1-1.06-1.85-2.65c-1.26-2.43-5.44-10.51-6.07-12-.48-1.11-3.65-7.77-5.5-11.73h-.21l-2.75,21a22.22,22.22,0,0,0-.16,2.49c0,1,.69,1.47,1.59,1.68a10.43,10.43,0,0,0,2.22.27c.42,0,.79.1.79.37,0,.47-.47.58-1.27.58-2.22,0-4.6-.16-5.54-.16s-3.54.16-5.23.16c-.53,0-.95-.11-.95-.58,0-.27.31-.37.84-.37a6.69,6.69,0,0,0,1.58-.16c1.49-.32,1.91-2.38,2.17-4.17l5.23-34.46" transform="translate(-3.5 -245)"/><path class="cls-2" d="M486,483c-.26,0-.31,0-.42.32l-2.47,6a8.13,8.13,0,0,0-.7,2.75c0,.79.43,1.27,1.85,1.27h.69c.58,0,.69.2.69.47s-.26.48-.75.48c-1.53,0-3.69-.16-5.17-.16-.48,0-3,.16-5.39.16-.58,0-.85-.11-.85-.48s.17-.47.53-.47,1-.06,1.38-.06c2.11-.31,2.9-1.69,3.85-4l12.16-28.27c.52-1.27.89-1.8,1.37-1.8.69,0,.89.43,1.37,1.43,1.11,2.49,8.88,20.87,11.84,27.69,1.8,4.07,3.12,4.65,4,4.81a11.94,11.94,0,0,0,1.74.16c.42,0,.64.15.64.47s-.26.48-2,.48-5,0-8.93-.11c-.85-.05-1.38-.05-1.38-.37s.12-.42.59-.47a.7.7,0,0,0,.42-1l-3.59-9a.43.43,0,0,0-.48-.32H486m9.94-2.48c.22,0,.26-.1.22-.27l-4.39-11.41c-.06-.16-.11-.43-.22-.43s-.21.27-.26.43l-4.49,11.36c-.11.22,0,.32.15.32Z" transform="translate(-3.5 -245)"/><path class="cls-2" d="M521.78,488.21c.1,3.49.68,4.55,1.59,4.87a8,8,0,0,0,2.42.32c.53,0,.79.2.79.47s-.41.48-1.05.48c-3,0-5.18-.16-6-.16-.42,0-2.63.16-5,.16-.63,0-1.05-.05-1.05-.48,0-.27.32-.47.74-.47a10,10,0,0,0,2.11-.21c1.22-.32,1.37-1.54,1.43-5.45l.43-26.63c0-.9.31-1.53.79-1.53s1.21.68,2,1.48c.58.58,7.56,7.71,14.32,14.31,3.17,3.12,9.35,9.47,10,10.1h.21l-.47-20c-.06-2.75-.48-3.54-1.59-4a7.91,7.91,0,0,0-2.43-.26c-.58,0-.74-.21-.74-.48s.47-.41,1.16-.41c2.43,0,4.92.1,5.91.1.54,0,2.28-.1,4.55-.1.63,0,1.06.05,1.06.41s-.27.48-.79.48a4.68,4.68,0,0,0-1.43.16c-1.27.37-1.63,1.16-1.69,3.7l-.53,28.32c0,1-.37,1.42-.74,1.42a2.75,2.75,0,0,1-1.9-.95c-2.9-2.69-8.71-8.24-13.58-12.94-5.07-4.86-10-10.3-10.88-11.1h-.16l.53,18.33" transform="translate(-3.5 -245)"/><path class="cls-2" d="M558.12,477.33c0-7.66,5.4-17.59,19.5-17.59,11.73,0,19,6.5,19,16.8s-7.5,18.39-19.5,18.39c-13.52,0-19-9.62-19-17.6m31.6.85c0-9.93-6-16.07-13.47-16.07-5.18,0-11.25,2.75-11.25,13.85,0,9.25,5.27,16.54,14,16.54C582.33,492.5,589.72,491,589.72,478.18Z" transform="translate(-3.5 -245)"/><path class="cls-2" d="M610,483c-.27,0-.32,0-.43.32l-2.48,6a8.3,8.3,0,0,0-.69,2.75c0,.79.43,1.27,1.85,1.27h.68c.59,0,.7.2.7.47s-.27.48-.74.48c-1.53,0-3.7-.16-5.18-.16-.47,0-3,.16-5.39.16-.58,0-.84-.11-.84-.48s.16-.47.53-.47.94-.06,1.37-.06c2.11-.31,2.91-1.69,3.86-4l12.15-28.27c.53-1.27.89-1.8,1.38-1.8.68,0,.89.43,1.37,1.43,1.11,2.49,8.87,20.87,11.83,27.69,1.8,4.07,3.11,4.65,4,4.81a12.06,12.06,0,0,0,1.74.16c.43,0,.64.15.64.47s-.26.48-2,.48-5,0-8.94-.11c-.84-.05-1.37-.05-1.37-.37s.11-.42.58-.47a.71.71,0,0,0,.43-1l-3.6-9a.44.44,0,0,0-.47-.32H610m9.93-2.48c.21,0,.26-.1.21-.27l-4.38-11.41c-.06-.16-.11-.43-.22-.43s-.2.27-.26.43l-4.49,11.36c-.1.22,0,.32.16.32Z" transform="translate(-3.5 -245)"/><rect class="cls-1" x="308.39" y="185.35" width="431.34" height="3.32"/><path class="cls-2" d="M735.62,361.09a6.37,6.37,0,0,1,0,12.74,6.37,6.37,0,0,1,0-12.74h0m0,.8a5.59,5.59,0,1,0,5.23,5.57,5.37,5.37,0,0,0-5.23-5.57Zm-1.24,9.25h-.91V364a11.63,11.63,0,0,1,1.84-.17,3.51,3.51,0,0,1,2.09.53,1.69,1.69,0,0,1,.65,1.45,1.79,1.79,0,0,1-1.39,1.75v0c.62.12,1,.69,1.22,1.74a4.91,4.91,0,0,0,.48,1.75h-1a5.64,5.64,0,0,1-.53-1.81,1.44,1.44,0,0,0-1.65-1.34h-.84Zm0-3.82h.87c1,0,1.84-.37,1.84-1.33,0-.68-.45-1.39-1.9-1.39a6.88,6.88,0,0,0-.81,0Z" transform="translate(-3.5 -245)"/><path class="cls-2" d="M500.18,455.1a.62.62,0,0,1-.62.62H486.09a.62.62,0,0,1-.62-.62V454a.62.62,0,0,1,.62-.63h13.47a.62.62,0,0,1,.62.63v1.13" transform="translate(-3.5 -245)"/></svg>