<svg width="492.045" height="90.723" viewBox="0 0 492.045 90.723" xmlns="http://www.w3.org/2000/svg"><g id="svgGroup" stroke-linecap="round" fill-rule="evenodd" font-size="9pt" stroke="#000" stroke-width="0.25mm" fill="#b9d2eb" style="stroke:#000;stroke-width:0.25mm;fill:#b9d2eb"><path d="M 314.134 54.424 A 2491.818 2491.818 0 0 0 312.5 56.445 A 89.306 89.306 0 0 0 310.107 59.692 A 119.848 119.848 0 0 0 307.617 63.379 A 94.427 94.427 0 0 0 306.723 64.726 Q 305.721 66.264 304.638 68.044 A 177.047 177.047 0 0 0 302.686 71.338 A 92.936 92.936 0 0 0 300.364 75.612 A 118.404 118.404 0 0 0 297.461 81.738 A 35.44 35.44 0 0 0 297.635 83.235 A 28.961 28.961 0 0 0 298.047 85.547 A 19.764 19.764 0 0 0 298.877 88.477 A 6.155 6.155 0 0 0 299.056 88.913 Q 299.567 90.033 300.391 90.527 A 58.001 58.001 0 0 1 302.906 89.797 A 47.185 47.185 0 0 1 306.885 88.916 Q 309.961 88.379 312.402 88.086 Q 315.234 87.695 317.676 87.695 Q 320.117 87.695 323.047 87.988 Q 325.586 88.184 328.906 88.623 A 89.779 89.779 0 0 1 331.685 89.037 A 112.39 112.39 0 0 1 336.035 89.844 Q 338.574 87.598 340.039 85.889 A 40.446 40.446 0 0 0 340.171 85.734 Q 341.089 84.653 341.684 83.793 A 12.093 12.093 0 0 0 342.188 83.008 A 12.859 12.859 0 0 0 342.637 82.153 Q 342.83 81.746 342.961 81.382 A 5.147 5.147 0 0 0 343.164 80.664 Q 342.203 80.046 340.541 79.597 A 21.458 21.458 0 0 0 339.014 79.248 A 46.485 46.485 0 0 0 333.398 78.516 A 71.704 71.704 0 0 0 330.84 78.337 A 87.652 87.652 0 0 0 326.27 78.223 A 80.79 80.79 0 0 0 324.276 78.247 Q 321.343 78.319 318.758 78.609 A 43.767 43.767 0 0 0 313.77 79.443 A 135.824 135.824 0 0 0 312.07 79.848 Q 309.422 80.497 307.602 81.072 A 28.775 28.775 0 0 0 305.957 81.641 Q 306.567 80.115 307.464 78.265 A 86.889 86.889 0 0 1 308.643 75.928 A 44.445 44.445 0 0 1 310.168 73.245 A 55.086 55.086 0 0 1 312.891 69.238 A 170.89 170.89 0 0 1 315.295 65.979 A 227.557 227.557 0 0 1 318.018 62.451 A 496.56 496.56 0 0 1 323.975 55.029 L 330.127 47.51 A 2121.186 2121.186 0 0 1 333.13 43.848 A 1809.955 1809.955 0 0 1 335.986 40.381 A 811.521 811.521 0 0 0 338.635 37.158 A 601.204 601.204 0 0 0 341.016 34.229 A 982.761 982.761 0 0 0 341.237 33.954 Q 342.783 32.037 343.945 30.576 A 351.117 351.117 0 0 0 344.727 29.59 A 94.374 94.374 0 0 0 348.273 24.538 A 72.724 72.724 0 0 0 351.953 18.262 A 50.467 50.467 0 0 0 352.476 17.223 Q 354.804 12.463 354.98 9.375 Q 354.98 8.008 354.883 6.641 A 23.324 23.324 0 0 0 354.869 6.484 Q 354.819 5.93 354.738 5.313 A 39.323 39.323 0 0 0 354.541 4.004 Q 354.297 2.539 353.809 1.172 A 40.259 40.259 0 0 0 351.673 0.851 A 49.271 49.271 0 0 0 347.9 0.537 A 288.422 288.422 0 0 1 344.812 0.378 A 243.61 243.61 0 0 1 341.895 0.195 A 3534.89 3534.89 0 0 0 341.491 0.183 A 3863.74 3863.74 0 0 0 335.254 0 A 70.66 70.66 0 0 0 332.69 0.049 A 93.166 93.166 0 0 0 329.883 0.195 Q 328.534 0.299 326.992 0.43 A 507.46 507.46 0 0 0 324.121 0.684 A 156.232 156.232 0 0 0 320.776 1.025 A 194.314 194.314 0 0 0 317.188 1.465 A 2.938 2.938 0 0 0 316.406 2.038 A 3.84 3.84 0 0 0 315.869 2.734 A 49.098 49.098 0 0 0 314.844 4.492 A 17.525 17.525 0 0 0 314.491 5.325 A 20.932 20.932 0 0 0 313.965 6.836 Q 313.721 7.751 313.591 8.514 A 11.208 11.208 0 0 0 313.477 9.375 Q 313.281 10.449 313.428 11.328 A 3.335 3.335 0 0 0 313.493 11.635 Q 313.564 11.903 313.675 12.114 A 1.492 1.492 0 0 0 314.063 12.598 A 32.835 32.835 0 0 1 316.392 11.575 A 38.168 38.168 0 0 1 322.022 9.863 Q 326.367 8.887 330.713 8.398 A 125.048 125.048 0 0 1 333.386 8.127 A 105.765 105.765 0 0 1 338.965 7.764 Q 342.871 7.617 345.703 7.617 A 5.381 5.381 0 0 1 345.79 8.582 A 5.791 5.791 0 0 1 345.654 9.814 A 16.972 16.972 0 0 1 345.02 12.012 A 21.203 21.203 0 0 1 344.699 12.904 A 25.546 25.546 0 0 1 344.043 14.453 A 47.636 47.636 0 0 1 343.354 15.732 Q 342.739 16.833 341.991 18.054 A 93.258 93.258 0 0 1 340.43 20.508 A 136.634 136.634 0 0 1 338.037 24.023 A 170.779 170.779 0 0 1 335.352 27.734 Q 332.52 31.543 329.346 35.596 A 507.848 507.848 0 0 1 328.949 36.101 A 466.184 466.184 0 0 1 323.096 43.408 A 2532.949 2532.949 0 0 0 320.105 47.07 A 2138.449 2138.449 0 0 0 317.285 50.537 A 4345.34 4345.34 0 0 0 315.643 52.562 Q 314.855 53.534 314.134 54.424 Z M 207.355 50.861 A 3.309 3.309 0 0 0 206.934 51.27 Q 206.348 51.855 205.542 52.771 A 65.88 65.88 0 0 0 204.98 53.418 A 134.987 134.987 0 0 1 203.76 54.822 A 162.708 162.708 0 0 1 202.441 56.299 Q 201.074 57.813 199.609 59.277 A 56.494 56.494 0 0 1 198.939 59.937 Q 197.87 60.971 196.973 61.719 Q 191.797 65.918 189.209 66.748 Q 186.621 67.578 185.742 66.016 A 2.924 2.924 0 0 1 185.343 64.516 Q 185.343 63.932 185.547 63.281 Q 186.035 61.719 186.914 59.473 A 673.498 673.498 0 0 0 187.674 57.535 Q 188.038 56.604 188.367 55.75 A 387.869 387.869 0 0 0 189.111 53.809 Q 190.039 51.367 190.625 49.365 A 54.365 54.365 0 0 0 191.15 47.449 A 39.836 39.836 0 0 0 191.553 45.703 A 17.752 17.752 0 0 0 191.669 45.084 A 15.599 15.599 0 0 0 191.895 42.48 A 23.072 23.072 0 0 0 191.898 42.375 Q 191.982 39.906 191.504 38.232 A 9.923 9.923 0 0 0 191.409 37.918 Q 190.929 36.427 190.088 35.498 A 6.167 6.167 0 0 0 189.971 35.372 A 5.247 5.247 0 0 0 187.939 34.033 A 7.268 7.268 0 0 0 187.901 34.02 A 7.59 7.59 0 0 0 185.352 33.594 A 11.38 11.38 0 0 0 180.371 34.717 A 22.275 22.275 0 0 0 175.928 37.549 A 30.076 30.076 0 0 0 172.07 41.309 Q 170.313 43.359 169.043 45.313 Q 171.191 36.816 173.73 29.346 A 217.087 217.087 0 0 0 178.32 13.965 A 287.946 287.946 0 0 0 178.784 11.89 A 229.964 229.964 0 0 0 179.199 9.961 A 36.65 36.65 0 0 0 179.251 9.523 A 32.887 32.887 0 0 0 179.443 6.934 A 6.998 6.998 0 0 0 179.445 6.878 Q 179.468 5.96 179.236 5.436 A 1.226 1.226 0 0 0 178.906 4.98 Q 178.767 4.633 178.382 4.459 A 1.749 1.749 0 0 0 178.027 4.346 A 6.278 6.278 0 0 0 177.546 4.262 A 7.4 7.4 0 0 0 176.563 4.199 A 7.939 7.939 0 0 0 176.534 4.199 Q 176.094 4.201 175.604 4.251 A 13.009 13.009 0 0 0 174.609 4.395 A 25.499 25.499 0 0 0 172.461 4.883 A 19.55 19.55 0 0 0 172.13 4.959 A 21.953 21.953 0 0 0 170.654 5.371 Q 169.727 5.664 168.945 6.152 A 12.625 12.625 0 0 1 169.156 7.498 A 16.352 16.352 0 0 1 169.238 9.18 A 25.968 25.968 0 0 1 169.043 12.402 A 72.904 72.904 0 0 1 169.018 12.622 A 79.86 79.86 0 0 1 168.555 16.016 Q 168.111 18.014 167.106 22.423 A 4770.409 4770.409 0 0 1 166.406 25.488 A 1724.433 1724.433 0 0 0 165.701 28.473 Q 164.444 33.813 162.5 42.188 A 1428.93 1428.93 0 0 1 161.944 44.574 Q 160.181 52.108 157.648 62.604 A 5029.273 5029.273 0 0 1 155.566 71.191 A 5.96 5.96 0 0 0 155.624 71.389 Q 155.754 71.809 155.933 72.156 A 3.345 3.345 0 0 0 156.445 72.9 Q 156.738 73.218 157.031 73.474 A 5.664 5.664 0 0 0 157.617 73.926 A 5.746 5.746 0 0 0 159.082 74.512 Q 159.766 74.609 160.449 74.609 A 4.016 4.016 0 0 0 161.06 74.56 A 5.384 5.384 0 0 0 161.719 74.414 A 3.27 3.27 0 0 0 162.054 74.298 A 3.546 3.546 0 0 0 162.988 73.73 Q 163.373 72.137 163.773 70.282 A 209.174 209.174 0 0 0 164.404 67.236 Q 165.137 63.574 165.82 60.449 Q 166.602 56.738 167.383 52.93 A 44.327 44.327 0 0 1 168.39 51.378 A 52.965 52.965 0 0 1 170.313 48.73 Q 171.973 46.582 173.779 44.873 A 23.919 23.919 0 0 1 175.36 43.499 A 18.542 18.542 0 0 1 177.393 42.09 A 10.207 10.207 0 0 1 177.927 41.793 Q 179.433 41.016 180.762 41.016 Q 182.446 41.016 183.032 42.252 A 3.235 3.235 0 0 1 183.301 43.213 A 8.964 8.964 0 0 1 183.337 43.532 Q 183.541 45.633 182.861 48.535 A 51.672 51.672 0 0 1 182.356 50.512 A 60.958 60.958 0 0 1 180.908 55.029 Q 180.145 57.135 179.592 58.878 A 60.053 60.053 0 0 0 179.004 60.84 A 42.333 42.333 0 0 0 178.409 63.261 Q 178.167 64.401 178.036 65.399 A 17.369 17.369 0 0 0 177.881 67.334 A 7.402 7.402 0 0 0 177.88 67.474 Q 177.88 69.983 179.59 72.168 Q 181.543 74.707 183.545 74.707 Q 185.547 74.707 188.477 73.047 A 35.182 35.182 0 0 0 190.991 71.502 A 46.189 46.189 0 0 0 193.945 69.336 A 106.888 106.888 0 0 0 199.561 64.551 Q 202.344 62.012 204.785 59.326 A 72.458 72.458 0 0 0 206.603 57.25 A 58.47 58.47 0 0 0 209.082 54.102 Q 209.546 53.464 209.752 52.895 A 2.626 2.626 0 0 0 209.912 52.148 Q 209.937 51.708 209.839 51.378 A 1.271 1.271 0 0 0 209.522 50.83 Q 209.126 50.435 208.493 50.435 A 2.158 2.158 0 0 0 208.35 50.439 Q 207.84 50.473 207.355 50.861 Z M 401.788 50.861 A 3.309 3.309 0 0 0 401.367 51.27 Q 400.781 51.855 399.976 52.771 A 65.88 65.88 0 0 0 399.414 53.418 A 134.987 134.987 0 0 1 398.193 54.822 A 162.708 162.708 0 0 1 396.875 56.299 Q 395.508 57.813 394.043 59.277 A 56.494 56.494 0 0 1 393.372 59.937 Q 392.303 60.971 391.406 61.719 Q 386.23 65.918 383.643 66.748 Q 381.055 67.578 380.176 66.016 A 2.924 2.924 0 0 1 379.777 64.516 Q 379.777 63.932 379.98 63.281 Q 380.469 61.719 381.348 59.473 A 673.498 673.498 0 0 0 382.108 57.535 Q 382.471 56.604 382.801 55.75 A 387.869 387.869 0 0 0 383.545 53.809 Q 384.473 51.367 385.059 49.365 A 54.365 54.365 0 0 0 385.584 47.449 A 39.836 39.836 0 0 0 385.986 45.703 A 17.752 17.752 0 0 0 386.103 45.084 A 15.599 15.599 0 0 0 386.328 42.48 A 23.072 23.072 0 0 0 386.332 42.375 Q 386.416 39.906 385.938 38.232 A 9.923 9.923 0 0 0 385.842 37.918 Q 385.362 36.427 384.522 35.498 A 6.167 6.167 0 0 0 384.404 35.372 A 5.247 5.247 0 0 0 382.373 34.033 A 7.268 7.268 0 0 0 382.335 34.02 A 7.59 7.59 0 0 0 379.785 33.594 A 11.38 11.38 0 0 0 374.805 34.717 A 22.275 22.275 0 0 0 370.361 37.549 A 30.076 30.076 0 0 0 366.504 41.309 Q 364.746 43.359 363.477 45.313 Q 365.625 36.816 368.164 29.346 A 217.087 217.087 0 0 0 372.754 13.965 A 287.946 287.946 0 0 0 373.218 11.89 A 229.964 229.964 0 0 0 373.633 9.961 A 36.65 36.65 0 0 0 373.685 9.523 A 32.887 32.887 0 0 0 373.877 6.934 A 6.998 6.998 0 0 0 373.879 6.878 Q 373.902 5.96 373.669 5.436 A 1.226 1.226 0 0 0 373.34 4.98 Q 373.201 4.633 372.815 4.459 A 1.749 1.749 0 0 0 372.461 4.346 A 6.278 6.278 0 0 0 371.979 4.262 A 7.4 7.4 0 0 0 370.996 4.199 A 7.939 7.939 0 0 0 370.968 4.199 Q 370.527 4.201 370.038 4.251 A 13.009 13.009 0 0 0 369.043 4.395 A 25.499 25.499 0 0 0 366.895 4.883 A 19.55 19.55 0 0 0 366.563 4.959 A 21.953 21.953 0 0 0 365.088 5.371 Q 364.16 5.664 363.379 6.152 A 12.625 12.625 0 0 1 363.589 7.498 A 16.352 16.352 0 0 1 363.672 9.18 A 25.968 25.968 0 0 1 363.477 12.402 A 72.904 72.904 0 0 1 363.452 12.622 A 79.86 79.86 0 0 1 362.988 16.016 Q 362.544 18.014 361.539 22.423 A 4770.409 4770.409 0 0 1 360.84 25.488 A 1724.433 1724.433 0 0 0 360.135 28.473 Q 358.878 33.813 356.934 42.188 A 1428.93 1428.93 0 0 1 356.377 44.574 Q 354.615 52.108 352.081 62.604 A 5029.273 5029.273 0 0 1 350 71.191 A 5.96 5.96 0 0 0 350.058 71.389 Q 350.188 71.809 350.366 72.156 A 3.345 3.345 0 0 0 350.879 72.9 Q 351.172 73.218 351.465 73.474 A 5.664 5.664 0 0 0 352.051 73.926 A 5.746 5.746 0 0 0 353.516 74.512 Q 354.199 74.609 354.883 74.609 A 4.016 4.016 0 0 0 355.494 74.56 A 5.384 5.384 0 0 0 356.152 74.414 A 3.27 3.27 0 0 0 356.488 74.298 A 3.546 3.546 0 0 0 357.422 73.73 Q 357.806 72.137 358.206 70.282 A 209.174 209.174 0 0 0 358.838 67.236 Q 359.57 63.574 360.254 60.449 Q 361.035 56.738 361.816 52.93 A 44.327 44.327 0 0 1 362.824 51.378 A 52.965 52.965 0 0 1 364.746 48.73 Q 366.406 46.582 368.213 44.873 A 23.919 23.919 0 0 1 369.794 43.499 A 18.542 18.542 0 0 1 371.826 42.09 A 10.207 10.207 0 0 1 372.361 41.793 Q 373.866 41.016 375.195 41.016 Q 376.88 41.016 377.466 42.252 A 3.235 3.235 0 0 1 377.734 43.213 A 8.964 8.964 0 0 1 377.771 43.532 Q 377.975 45.633 377.295 48.535 A 51.672 51.672 0 0 1 376.789 50.512 A 60.958 60.958 0 0 1 375.342 55.029 Q 374.579 57.135 374.026 58.878 A 60.053 60.053 0 0 0 373.438 60.84 A 42.333 42.333 0 0 0 372.843 63.261 Q 372.601 64.401 372.469 65.399 A 17.369 17.369 0 0 0 372.314 67.334 A 7.402 7.402 0 0 0 372.313 67.474 Q 372.313 69.983 374.023 72.168 Q 375.977 74.707 377.979 74.707 Q 379.98 74.707 382.91 73.047 A 35.182 35.182 0 0 0 385.425 71.502 A 46.189 46.189 0 0 0 388.379 69.336 A 106.888 106.888 0 0 0 393.994 64.551 Q 396.777 62.012 399.219 59.326 A 72.458 72.458 0 0 0 401.037 57.25 A 58.47 58.47 0 0 0 403.516 54.102 Q 403.98 53.464 404.185 52.895 A 2.626 2.626 0 0 0 404.346 52.148 Q 404.37 51.708 404.272 51.378 A 1.271 1.271 0 0 0 403.955 50.83 Q 403.56 50.435 402.927 50.435 A 2.158 2.158 0 0 0 402.783 50.439 Q 402.274 50.473 401.788 50.861 Z M 36.523 7.422 L 31.25 7.422 A 7829.728 7829.728 0 0 0 30.215 11.086 Q 29.75 12.736 29.227 14.591 A 16497.992 16497.992 0 0 0 28.125 18.506 A 755.996 755.996 0 0 0 25.314 28.778 A 868.848 868.848 0 0 0 24.365 32.373 A 669.349 669.349 0 0 0 20.752 46.826 A 243.337 243.337 0 0 0 19.311 53.244 Q 18.676 56.272 18.199 58.994 A 144.374 144.374 0 0 0 18.066 59.766 Q 17.09 65.332 16.113 70.703 A 782.484 782.484 0 0 1 15.5 74.182 A 886.914 886.914 0 0 1 15.283 75.391 Q 14.844 77.832 14.502 80.176 A 505.822 505.822 0 0 0 14.017 83.582 A 442.591 442.591 0 0 0 13.867 84.668 A 185.445 185.445 0 0 0 13.599 86.719 A 136.697 136.697 0 0 0 13.379 88.574 A 24.234 24.234 0 0 1 11.865 89.27 A 18.054 18.054 0 0 1 10.449 89.795 A 24.471 24.471 0 0 1 9.309 90.133 Q 8.612 90.32 8.008 90.43 Q 6.738 90.723 5.664 90.723 Q 3.643 90.723 2.965 90.323 A 0.908 0.908 0 0 1 2.783 90.186 A 0.967 0.967 0 0 1 2.552 89.796 Q 2.395 89.318 2.547 88.498 A 6.785 6.785 0 0 1 2.637 88.086 Q 2.911 86.807 4.211 81.423 A 1954.265 1954.265 0 0 1 4.395 80.664 A 448.187 448.187 0 0 1 4.709 79.312 Q 5.212 77.161 5.908 74.268 A 708.732 708.732 0 0 0 6.652 71.141 Q 6.982 69.741 7.345 68.179 A 1417.011 1417.011 0 0 0 8.105 64.893 Q 8.978 61.099 10.082 56.429 A 2278.334 2278.334 0 0 1 11.133 52.002 A 4007.125 4007.125 0 0 0 12.764 45.13 Q 13.596 41.614 14.515 37.707 A 6900.828 6900.828 0 0 0 15.137 35.059 L 21.68 7.91 A 152.658 152.658 0 0 0 15.918 8.789 A 139.452 139.452 0 0 0 12.511 9.418 A 116.281 116.281 0 0 0 10.596 9.814 Q 8.105 10.352 6.104 10.84 Q 4.571 11.214 3.525 11.473 A 312.288 312.288 0 0 0 2.93 11.621 A 5.553 5.553 0 0 1 2.53 11.739 Q 1.9 11.897 1.474 11.818 A 1.142 1.142 0 0 1 1.172 11.719 A 1.774 1.774 0 0 1 0.43 11.013 A 2.368 2.368 0 0 1 0.293 10.742 Q 0 10.059 0 9.229 A 12.984 12.984 0 0 1 0.098 7.617 A 9.902 9.902 0 0 1 0.211 6.982 Q 0.279 6.657 0.374 6.298 A 17.759 17.759 0 0 1 0.439 6.055 A 9.22 9.22 0 0 1 1.074 4.395 A 5.521 5.521 0 0 1 1.56 3.593 A 4.478 4.478 0 0 1 2.002 3.076 A 2.569 2.569 0 0 1 2.854 2.518 A 3.452 3.452 0 0 1 3.418 2.344 Q 7.91 1.563 12.158 1.172 A 264.299 264.299 0 0 1 16.139 0.835 Q 18.028 0.69 19.716 0.592 A 159.682 159.682 0 0 1 19.824 0.586 A 103.733 103.733 0 0 1 25.519 0.311 A 91.878 91.878 0 0 1 27.344 0.293 A 25.043 25.043 0 0 1 28.906 0.342 A 25.043 25.043 0 0 0 30.469 0.391 Q 31.304 0.205 31.83 0.24 A 2.218 2.218 0 0 1 31.885 0.244 A 7.927 7.927 0 0 1 32.312 0.294 Q 32.587 0.334 32.813 0.391 A 193.517 193.517 0 0 1 37.918 0.636 A 214.143 214.143 0 0 1 38.672 0.684 L 44.385 1.123 A 133.042 133.042 0 0 1 50.684 1.758 Q 50.925 2.402 50.835 3.313 A 6.1 6.1 0 0 1 50.781 3.711 L 50.586 4.883 A 2.304 2.304 0 0 1 50.101 5.953 A 2.848 2.848 0 0 1 50.098 5.957 A 4.696 4.696 0 0 1 49.538 6.704 A 5.411 5.411 0 0 1 49.365 6.885 A 3.909 3.909 0 0 1 48.344 7.615 A 4.878 4.878 0 0 1 48.34 7.617 A 487.162 487.162 0 0 0 43.497 7.498 A 433.884 433.884 0 0 0 41.943 7.471 Q 38.867 7.422 36.523 7.422 Z M 144.434 48.242 L 143.359 52.539 A 159.592 159.592 0 0 1 142.959 54.18 Q 142.596 55.634 142.139 57.373 A 99.663 99.663 0 0 1 141.321 60.291 A 133.02 133.02 0 0 1 140.332 63.477 A 15.173 15.173 0 0 0 140.029 64.811 Q 139.798 66.108 139.889 67.148 A 6.324 6.324 0 0 0 139.893 67.188 A 2.037 2.037 0 0 0 140.075 67.889 Q 140.492 68.75 141.797 68.75 A 3.864 3.864 0 0 0 143.018 68.53 Q 144.104 68.166 145.449 67.203 A 18.747 18.747 0 0 0 146.24 66.602 A 41.685 41.685 0 0 0 149.277 63.906 A 53.878 53.878 0 0 0 151.66 61.426 Q 154.395 58.398 156.836 55.225 Q 158.848 52.609 160.064 50.822 A 41.025 41.025 0 0 0 160.547 50.098 A 9.122 9.122 0 0 1 161.034 49.453 Q 161.646 48.718 162.207 48.438 A 2.751 2.751 0 0 1 162.475 48.32 Q 162.939 48.147 163.261 48.257 A 0.722 0.722 0 0 1 163.428 48.34 A 0.783 0.783 0 0 1 163.691 48.654 Q 163.828 48.93 163.858 49.384 A 4.103 4.103 0 0 1 163.867 49.658 A 3.553 3.553 0 0 1 163.777 50.417 Q 163.616 51.148 163.169 52.076 A 12.797 12.797 0 0 1 163.086 52.246 A 24.602 24.602 0 0 1 162.587 53.186 Q 161.96 54.315 160.986 55.859 A 54.836 54.836 0 0 1 159.436 58.179 A 72.656 72.656 0 0 1 157.617 60.645 A 110.789 110.789 0 0 1 153.975 65.125 A 122.53 122.53 0 0 1 153.418 65.771 A 45.901 45.901 0 0 1 149.187 70.061 A 41.994 41.994 0 0 1 148.73 70.459 A 32.209 32.209 0 0 1 146.075 72.522 A 25.146 25.146 0 0 1 143.897 73.877 A 11.966 11.966 0 0 1 141.993 74.731 Q 140.631 75.195 139.355 75.195 Q 137.149 75.195 135.555 74.394 A 6.4 6.4 0 0 1 135.498 74.365 Q 133.887 73.535 132.91 72.168 Q 131.934 70.801 131.641 68.994 A 8.667 8.667 0 0 1 131.531 67.605 Q 131.531 66.752 131.688 65.85 A 12.003 12.003 0 0 1 131.836 65.137 Q 132.101 63.902 132.684 61.91 A 98.468 98.468 0 0 1 132.813 61.475 Q 133.496 59.18 134.229 56.494 Q 134.961 53.809 135.596 51.123 A 41.578 41.578 0 0 0 136.094 48.713 Q 136.322 47.408 136.426 46.24 A 16.893 16.893 0 0 0 136.48 45.401 Q 136.538 43.906 136.283 42.83 A 5.832 5.832 0 0 0 136.23 42.627 A 2.648 2.648 0 0 0 135.975 41.999 Q 135.518 41.211 134.57 41.211 Q 133.008 41.211 131.348 42.236 Q 129.791 43.198 128.192 44.802 A 24.741 24.741 0 0 0 127.979 45.02 A 36.911 36.911 0 0 0 125.949 47.296 A 46.536 46.536 0 0 0 124.561 49.072 Q 122.852 51.367 121.191 53.809 A 287.43 287.43 0 0 0 120.573 56.182 Q 120.333 57.122 120.121 57.982 A 160.876 160.876 0 0 0 119.727 59.619 A 366.778 366.778 0 0 0 119.193 61.917 Q 118.944 63.006 118.73 63.982 A 220.166 220.166 0 0 0 118.701 64.111 Q 118.324 65.832 117.982 67.192 A 69.769 69.769 0 0 1 117.871 67.627 A 75.417 75.417 0 0 0 117.38 69.639 A 63.721 63.721 0 0 0 117.188 70.508 A 2.277 2.277 0 0 1 116.806 71.23 Q 116.394 71.771 115.608 72.296 A 8.54 8.54 0 0 1 115.43 72.412 A 15.398 15.398 0 0 1 112.305 73.926 A 12.615 12.615 0 0 1 111.168 74.271 Q 110.597 74.414 110.089 74.472 A 5.868 5.868 0 0 1 109.424 74.512 Q 108.203 74.512 108.398 73.633 Q 108.493 73.065 109.001 71.119 A 160.983 160.983 0 0 1 109.033 70.996 A 3232.082 3232.082 0 0 1 109.464 69.355 Q 109.845 67.902 110.303 66.162 A 454.86 454.86 0 0 0 111.047 63.293 A 538.527 538.527 0 0 0 111.816 60.254 A 814.721 814.721 0 0 0 112.573 57.202 A 700.831 700.831 0 0 0 113.281 54.297 A 1490.628 1490.628 0 0 0 113.794 51.929 A 1999.136 1999.136 0 0 0 114.355 49.316 Q 114.844 46.973 115.576 43.848 A 228.456 228.456 0 0 1 116.37 40.576 A 298.514 298.514 0 0 1 117.285 37.012 A 6.592 6.592 0 0 1 118.203 36.348 A 5.632 5.632 0 0 1 118.701 36.084 A 8.374 8.374 0 0 1 120.215 35.547 A 6.829 6.829 0 0 1 121.766 35.169 A 7.571 7.571 0 0 1 121.875 35.156 Q 122.656 35.156 123.438 35.254 A 7.698 7.698 0 0 1 124.401 35.457 A 9.128 9.128 0 0 1 124.854 35.596 A 4.032 4.032 0 0 1 126.172 36.328 Q 125.907 36.946 125.563 38.001 A 43.684 43.684 0 0 0 125.488 38.232 A 79.757 79.757 0 0 0 125.098 39.49 A 93.195 93.195 0 0 0 124.707 40.82 A 34.575 34.575 0 0 1 124.011 43.219 A 39.525 39.525 0 0 1 123.73 44.043 A 42.41 42.41 0 0 1 125.638 41.603 A 50.027 50.027 0 0 1 126.611 40.479 A 25.692 25.692 0 0 1 130.127 37.207 Q 132.031 35.742 134.18 34.814 Q 136.328 33.887 138.574 33.887 A 5.473 5.473 0 0 1 141.895 34.961 A 6.71 6.71 0 0 1 143.672 36.934 A 8.567 8.567 0 0 1 144.189 37.939 A 11.004 11.004 0 0 1 144.849 40.027 Q 145.062 41.02 145.145 42.154 A 18.817 18.817 0 0 1 145.166 42.48 A 13.76 13.76 0 0 1 145.187 43.244 Q 145.187 45.564 144.434 48.242 Z M 212.845 74.178 A 19.411 19.411 0 0 0 215.234 74.316 A 12.397 12.397 0 0 0 221.973 72.412 A 15.365 15.365 0 0 0 224.805 70.105 A 19.49 19.49 0 0 0 227.246 66.992 Q 228.32 70.41 229.834 72.217 A 4.825 4.825 0 0 0 232.165 73.769 A 6.199 6.199 0 0 0 233.984 74.023 A 7.869 7.869 0 0 0 235.577 73.856 Q 237.801 73.398 240.234 71.68 A 37.381 37.381 0 0 0 243.233 69.315 A 48.056 48.056 0 0 0 246.826 65.82 Q 250.098 62.305 252.979 58.154 A 87.246 87.246 0 0 0 255.627 54.114 A 65.967 65.967 0 0 0 257.813 50.293 A 4.691 4.691 0 0 0 257.935 50.057 Q 258.256 49.393 258.256 48.816 A 2.02 2.02 0 0 0 258.252 48.682 A 2.582 2.582 0 0 0 258.225 48.441 Q 258.136 47.89 257.813 47.607 A 0.875 0.875 0 0 0 257.216 47.39 Q 257.111 47.39 256.996 47.41 A 1.723 1.723 0 0 0 256.787 47.461 Q 256.331 47.601 255.849 48.095 A 5.218 5.218 0 0 0 255.469 48.535 A 21.536 21.536 0 0 0 255.427 48.59 Q 255.166 48.941 254.412 49.976 A 886.639 886.639 0 0 0 254.004 50.537 Q 252.832 52.148 251.172 54.297 A 135.676 135.676 0 0 1 249.426 56.506 A 167.074 167.074 0 0 1 247.51 58.838 A 74.813 74.813 0 0 1 246.478 60.046 A 64.69 64.69 0 0 1 243.506 63.232 A 42.112 42.112 0 0 1 243.443 63.295 Q 241.475 65.255 239.648 66.553 A 12.688 12.688 0 0 1 239.5 66.657 Q 238.412 67.406 237.496 67.693 A 3.588 3.588 0 0 1 236.426 67.871 A 3.452 3.452 0 0 1 236.233 67.866 A 2.887 2.887 0 0 1 235.01 67.529 A 1.868 1.868 0 0 1 234.653 67.278 Q 234.246 66.915 233.936 66.26 A 4.649 4.649 0 0 1 233.872 66.119 Q 233.605 65.504 233.395 64.568 A 18.303 18.303 0 0 1 233.203 63.574 Q 233.002 62.366 232.846 60.603 A 81.091 81.091 0 0 1 232.715 58.887 A 289.652 289.652 0 0 0 233.228 58.167 A 385.004 385.004 0 0 0 233.789 57.373 A 8.401 8.401 0 0 0 234.064 56.957 Q 234.512 56.234 234.961 55.225 A 24.575 24.575 0 0 0 235.238 54.574 Q 235.472 54.006 235.712 53.348 A 49.169 49.169 0 0 0 236.182 52.002 A 42.759 42.759 0 0 0 236.482 51.064 Q 236.734 50.244 236.994 49.297 A 87.216 87.216 0 0 0 237.5 47.363 A 33.033 33.033 0 0 0 237.939 45.715 A 28.225 28.225 0 0 0 238.672 40.918 A 167.562 167.562 0 0 0 238.753 39.539 Q 238.83 38.116 238.855 37.109 A 35.498 35.498 0 0 0 238.867 36.23 A 0.994 0.994 0 0 0 238.572 35.496 Q 238.279 35.205 237.695 35.059 Q 237.47 35.002 237.195 34.962 A 7.927 7.927 0 0 0 236.768 34.912 A 3.749 3.749 0 0 0 236.63 34.902 Q 236.133 34.875 235.449 34.961 Q 233.496 35.059 232.617 35.596 Q 231.944 36.007 231.157 37.477 A 18.089 18.089 0 0 0 230.664 38.477 A 22.745 22.745 0 0 0 230.487 38.839 Q 230.112 39.624 229.648 40.729 A 80.769 80.769 0 0 0 229.248 41.699 A 39.081 39.081 0 0 0 228.442 43.884 A 52.381 52.381 0 0 0 227.686 46.338 Q 226.953 48.926 226.416 51.904 Q 225.879 54.883 225.879 58.008 Q 225.879 59.668 226.172 61.23 A 24.422 24.422 0 0 1 224.454 63.585 A 18.613 18.613 0 0 1 221.875 66.162 A 9.761 9.761 0 0 1 220.391 67.166 A 7.025 7.025 0 0 1 216.992 68.066 A 11.11 11.11 0 0 1 215.553 67.979 Q 212.835 67.623 211.816 65.82 Q 210.723 63.886 210.933 60.359 A 23.175 23.175 0 0 1 211.035 59.18 Q 211.169 57.837 211.627 55.894 A 55.876 55.876 0 0 1 212.109 54.004 A 71.741 71.741 0 0 1 212.282 53.388 Q 212.836 51.45 213.693 48.822 A 236.612 236.612 0 0 1 214.404 46.68 Q 215.54 43.311 217.307 38.678 A 403.227 403.227 0 0 1 218.555 35.449 A 4.414 4.414 0 0 0 217.948 35.271 A 5.143 5.143 0 0 0 216.846 35.156 A 16.353 16.353 0 0 0 215.039 35.254 A 132.019 132.019 0 0 0 214.508 35.352 A 115.161 115.161 0 0 0 212.988 35.645 A 7.147 7.147 0 0 0 209.033 38.525 A 16.484 16.484 0 0 0 207.824 40.655 A 20.92 20.92 0 0 0 206.738 43.457 A 2.972 2.972 0 0 0 206.719 43.508 Q 206.557 43.935 206.195 45.218 A 112.171 112.171 0 0 0 206.006 45.898 Q 205.469 47.852 204.785 50.635 A 58.718 58.718 0 0 0 204.262 52.977 A 72.862 72.862 0 0 0 203.613 56.689 A 47.607 47.607 0 0 0 203.345 58.8 A 39.636 39.636 0 0 0 203.125 62.891 A 10.364 10.364 0 0 0 203.126 63.001 Q 203.134 63.834 203.277 64.751 A 17.027 17.027 0 0 0 203.662 66.553 A 10.475 10.475 0 0 0 205.518 70.264 A 9.114 9.114 0 0 0 207.266 71.972 A 12.358 12.358 0 0 0 209.18 73.145 A 9.293 9.293 0 0 0 210.528 73.687 Q 211.583 74.021 212.845 74.178 Z M 446.634 74.178 A 19.411 19.411 0 0 0 449.023 74.316 A 12.397 12.397 0 0 0 455.762 72.412 A 15.365 15.365 0 0 0 458.594 70.105 A 19.49 19.49 0 0 0 461.035 66.992 Q 462.109 70.41 463.623 72.217 A 4.825 4.825 0 0 0 465.954 73.769 A 6.199 6.199 0 0 0 467.773 74.023 A 7.869 7.869 0 0 0 469.366 73.856 Q 471.59 73.398 474.023 71.68 A 37.381 37.381 0 0 0 477.022 69.315 A 48.056 48.056 0 0 0 480.615 65.82 Q 483.887 62.305 486.768 58.154 A 87.246 87.246 0 0 0 489.417 54.114 A 65.967 65.967 0 0 0 491.602 50.293 A 4.691 4.691 0 0 0 491.724 50.057 Q 492.045 49.393 492.045 48.816 A 2.02 2.02 0 0 0 492.041 48.682 A 2.582 2.582 0 0 0 492.014 48.441 Q 491.925 47.89 491.602 47.607 A 0.875 0.875 0 0 0 491.006 47.39 Q 490.9 47.39 490.785 47.41 A 1.723 1.723 0 0 0 490.576 47.461 Q 490.12 47.601 489.638 48.095 A 5.218 5.218 0 0 0 489.258 48.535 A 21.536 21.536 0 0 0 489.217 48.59 Q 488.955 48.941 488.202 49.976 A 886.639 886.639 0 0 0 487.793 50.537 Q 486.621 52.148 484.961 54.297 A 135.676 135.676 0 0 1 483.215 56.506 A 167.074 167.074 0 0 1 481.299 58.838 A 74.813 74.813 0 0 1 480.267 60.046 A 64.69 64.69 0 0 1 477.295 63.232 A 42.112 42.112 0 0 1 477.232 63.295 Q 475.264 65.255 473.438 66.553 A 12.688 12.688 0 0 1 473.289 66.657 Q 472.201 67.406 471.285 67.693 A 3.588 3.588 0 0 1 470.215 67.871 A 3.452 3.452 0 0 1 470.022 67.866 A 2.887 2.887 0 0 1 468.799 67.529 A 1.868 1.868 0 0 1 468.443 67.278 Q 468.035 66.915 467.725 66.26 A 4.649 4.649 0 0 1 467.661 66.119 Q 467.394 65.504 467.184 64.568 A 18.303 18.303 0 0 1 466.992 63.574 Q 466.791 62.366 466.636 60.603 A 81.091 81.091 0 0 1 466.504 58.887 A 289.652 289.652 0 0 0 467.017 58.167 A 385.004 385.004 0 0 0 467.578 57.373 A 8.401 8.401 0 0 0 467.853 56.957 Q 468.301 56.234 468.75 55.225 A 24.575 24.575 0 0 0 469.027 54.574 Q 469.261 54.006 469.502 53.348 A 49.169 49.169 0 0 0 469.971 52.002 A 42.759 42.759 0 0 0 470.271 51.064 Q 470.523 50.244 470.783 49.297 A 87.216 87.216 0 0 0 471.289 47.363 A 33.033 33.033 0 0 0 471.729 45.715 A 28.225 28.225 0 0 0 472.461 40.918 A 167.562 167.562 0 0 0 472.542 39.539 Q 472.619 38.116 472.644 37.109 A 35.498 35.498 0 0 0 472.656 36.23 A 0.994 0.994 0 0 0 472.362 35.496 Q 472.069 35.205 471.484 35.059 Q 471.259 35.002 470.984 34.962 A 7.927 7.927 0 0 0 470.557 34.912 A 3.749 3.749 0 0 0 470.419 34.902 Q 469.922 34.875 469.238 34.961 Q 467.285 35.059 466.406 35.596 Q 465.733 36.007 464.946 37.477 A 18.089 18.089 0 0 0 464.453 38.477 A 22.745 22.745 0 0 0 464.276 38.839 Q 463.901 39.624 463.437 40.729 A 80.769 80.769 0 0 0 463.037 41.699 A 39.081 39.081 0 0 0 462.231 43.884 A 52.381 52.381 0 0 0 461.475 46.338 Q 460.742 48.926 460.205 51.904 Q 459.668 54.883 459.668 58.008 Q 459.668 59.668 459.961 61.23 A 24.422 24.422 0 0 1 458.243 63.585 A 18.613 18.613 0 0 1 455.664 66.162 A 9.761 9.761 0 0 1 454.18 67.166 A 7.025 7.025 0 0 1 450.781 68.066 A 11.11 11.11 0 0 1 449.342 67.979 Q 446.625 67.623 445.605 65.82 Q 444.512 63.886 444.723 60.359 A 23.175 23.175 0 0 1 444.824 59.18 Q 444.959 57.837 445.416 55.894 A 55.876 55.876 0 0 1 445.898 54.004 A 71.741 71.741 0 0 1 446.071 53.388 Q 446.625 51.45 447.482 48.822 A 236.612 236.612 0 0 1 448.193 46.68 Q 449.329 43.311 451.096 38.678 A 403.227 403.227 0 0 1 452.344 35.449 A 4.414 4.414 0 0 0 451.737 35.271 A 5.143 5.143 0 0 0 450.635 35.156 A 16.353 16.353 0 0 0 448.828 35.254 A 132.019 132.019 0 0 0 448.297 35.352 A 115.161 115.161 0 0 0 446.777 35.645 A 7.147 7.147 0 0 0 442.822 38.525 A 16.484 16.484 0 0 0 441.613 40.655 A 20.92 20.92 0 0 0 440.527 43.457 A 2.972 2.972 0 0 0 440.508 43.508 Q 440.346 43.935 439.984 45.218 A 112.171 112.171 0 0 0 439.795 45.898 Q 439.258 47.852 438.574 50.635 A 58.718 58.718 0 0 0 438.051 52.977 A 72.862 72.862 0 0 0 437.402 56.689 A 47.607 47.607 0 0 0 437.134 58.8 A 39.636 39.636 0 0 0 436.914 62.891 A 10.364 10.364 0 0 0 436.915 63.001 Q 436.924 63.834 437.066 64.751 A 17.027 17.027 0 0 0 437.451 66.553 A 10.475 10.475 0 0 0 439.307 70.264 A 9.114 9.114 0 0 0 441.055 71.972 A 12.358 12.358 0 0 0 442.969 73.145 A 9.293 9.293 0 0 0 444.317 73.687 Q 445.372 74.021 446.634 74.178 Z M 116.162 54.355 A 126.445 126.445 0 0 0 116.895 53.32 A 14.832 14.832 0 0 0 116.943 53.256 Q 118.071 51.734 118.311 50.586 A 5.443 5.443 0 0 0 118.335 50.461 Q 118.534 49.382 118.164 48.828 A 1.309 1.309 0 0 0 118.13 48.779 Q 117.74 48.248 116.992 48.389 A 1.989 1.989 0 0 0 116.455 48.576 Q 115.942 48.837 115.43 49.414 Q 114.844 50.195 113.525 51.855 Q 112.784 52.789 111.934 53.878 A 452.476 452.476 0 0 0 110.547 55.664 A 147.566 147.566 0 0 1 109.702 56.747 A 170.056 170.056 0 0 1 106.982 60.107 A 117.618 117.618 0 0 1 105.115 62.305 A 95.297 95.297 0 0 1 103.32 64.307 Q 101.563 66.211 100 67.432 Q 98.438 68.652 97.461 68.652 Q 96.289 68.652 95.654 68.115 A 2.865 2.865 0 0 1 95.142 67.547 A 3.371 3.371 0 0 1 94.727 66.699 A 6.407 6.407 0 0 1 94.561 66.107 A 7.433 7.433 0 0 1 94.385 64.795 Q 94.336 63.77 94.434 62.891 L 94.922 60.449 L 95.264 58.74 L 95.557 57.275 A 67.659 67.659 0 0 1 95.715 56.506 A 89.496 89.496 0 0 1 95.898 55.664 A 1371.173 1371.173 0 0 0 96.1 54.735 Q 96.937 50.873 97.461 48.34 A 290.755 290.755 0 0 0 97.72 47.077 Q 97.986 45.758 98.175 44.751 A 86.451 86.451 0 0 0 98.34 43.848 Q 98.633 42.188 98.633 41.553 Q 98.633 41.067 98.576 40.838 A 0.574 0.574 0 0 0 98.535 40.723 Q 98.34 40.625 97.754 40.625 A 6.586 6.586 0 0 0 97.501 40.63 Q 97.048 40.648 96.338 40.723 A 14.328 14.328 0 0 0 95.783 40.793 Q 95.027 40.902 94.043 41.113 A 18.266 18.266 0 0 0 94.365 40.605 Q 96.057 37.831 95.654 36.084 A 6.024 6.024 0 0 0 95.366 35.164 A 4.377 4.377 0 0 0 93.848 33.203 A 8.298 8.298 0 0 0 93.126 32.787 Q 92.344 32.387 91.391 32.089 A 15.934 15.934 0 0 0 89.551 31.641 A 5.32 5.32 0 0 0 89.09 31.621 Q 86.963 31.621 83.887 33.203 A 20.767 20.767 0 0 0 83.165 33.593 Q 80.098 35.327 76.953 38.428 Q 73.438 41.895 70.459 46.777 A 33.971 33.971 0 0 0 69.525 48.408 A 36.78 36.78 0 0 0 66.113 57.617 A 37.291 37.291 0 0 0 65.893 58.573 Q 65.245 61.564 65.27 63.952 A 15.199 15.199 0 0 0 65.332 65.186 Q 65.625 68.359 66.699 70.361 A 10.861 10.861 0 0 0 66.758 70.47 Q 67.204 71.279 67.733 71.907 A 6.3 6.3 0 0 0 69.336 73.291 A 8.848 8.848 0 0 0 69.73 73.512 Q 70.315 73.82 70.873 73.994 A 4.668 4.668 0 0 0 72.266 74.219 A 19.729 19.729 0 0 0 72.861 74.17 A 21.21 21.21 0 0 0 78.125 72.949 A 16.331 16.331 0 0 0 78.665 72.73 Q 79.841 72.229 81.079 71.492 A 28.832 28.832 0 0 0 83.496 69.873 A 14.84 14.84 0 0 0 84.224 69.297 Q 86.633 67.266 88.672 63.867 A 26.982 26.982 0 0 0 88.664 64.105 Q 88.62 65.671 88.771 66.917 A 11.028 11.028 0 0 0 89.014 68.262 A 25.662 25.662 0 0 0 89.307 69.342 Q 89.457 69.845 89.612 70.274 A 10.965 10.965 0 0 0 89.941 71.094 Q 90.216 71.689 90.555 72.155 A 4.386 4.386 0 0 0 91.406 73.047 A 5.227 5.227 0 0 0 92.2 73.48 A 6.291 6.291 0 0 0 93.457 73.877 A 7.93 7.93 0 0 0 93.667 73.918 Q 94.747 74.112 95.947 74.023 Q 97.266 73.926 98.535 73.535 A 11.737 11.737 0 0 0 99.482 73.2 A 9.28 9.28 0 0 0 100.781 72.559 A 9.378 9.378 0 0 0 101.185 72.273 Q 102.1 71.591 103.265 70.423 A 41.001 41.001 0 0 0 104.443 69.189 A 87.881 87.881 0 0 0 106.105 67.326 A 106.191 106.191 0 0 0 108.936 63.916 A 228.204 228.204 0 0 0 113.379 58.154 Q 114.99 55.994 116.162 54.355 Z M 424.033 63.755 A 34.13 34.13 0 0 0 426.465 57.227 A 26.465 26.465 0 0 0 429.468 56.006 A 35.734 35.734 0 0 0 432.617 54.297 A 81.255 81.255 0 0 0 434.246 53.283 A 70.181 70.181 0 0 0 438.574 50.293 A 108.656 108.656 0 0 0 439.329 49.722 Q 440.439 48.874 441.419 48.079 A 64.445 64.445 0 0 0 443.311 46.484 A 104.52 104.52 0 0 0 443.324 46.472 Q 445.314 44.725 445.801 44.141 A 7.924 7.924 0 0 0 446.244 43.548 Q 446.478 43.2 446.632 42.874 A 3.259 3.259 0 0 0 446.875 42.188 Q 447.07 41.309 446.777 40.82 A 0.789 0.789 0 0 0 446.34 40.461 Q 446.111 40.385 445.801 40.43 Q 445.299 40.501 444.639 40.994 A 7.117 7.117 0 0 0 444.141 41.406 Q 443.399 42.148 442.345 43.007 A 42.2 42.2 0 0 1 441.016 44.043 A 50.931 50.931 0 0 1 439.89 44.863 A 59.142 59.142 0 0 1 436.768 46.924 Q 434.473 48.34 432.031 49.609 A 54.908 54.908 0 0 1 430.228 50.507 A 45.073 45.073 0 0 1 427.344 51.758 A 35.523 35.523 0 0 0 427.405 51.236 Q 427.435 50.959 427.466 50.648 A 72 72 0 0 0 427.539 49.854 Q 427.6 49.152 427.623 48.583 A 15.825 15.825 0 0 0 427.637 47.949 Q 427.637 46.045 427.319 44.421 A 12.546 12.546 0 0 0 426.367 41.455 A 17.806 17.806 0 0 0 425.293 39.499 A 13.763 13.763 0 0 0 423.291 37.012 A 15.856 15.856 0 0 0 421.692 35.642 A 11.944 11.944 0 0 0 419.58 34.375 A 19.58 19.58 0 0 0 419.501 34.339 Q 417.649 33.494 416.406 33.398 A 11.014 11.014 0 0 1 416.126 33.301 A 8.655 8.655 0 0 1 415.869 33.203 A 1.31 1.31 0 0 0 415.677 33.143 A 1.53 1.53 0 0 0 415.332 33.105 A 14.381 14.381 0 0 0 414.447 33.133 A 16.14 16.14 0 0 0 411.719 33.545 Q 409.863 33.984 408.252 34.814 Q 406.641 35.645 405.42 36.914 A 8.041 8.041 0 0 0 403.613 39.844 Q 401.953 41.797 400.732 44.141 A 35.326 35.326 0 0 0 400.434 44.727 A 31.773 31.773 0 0 0 398.73 48.828 A 40.673 40.673 0 0 0 398.45 49.704 A 36.185 36.185 0 0 0 397.51 53.418 A 29.302 29.302 0 0 0 397.503 53.453 Q 397.288 54.557 397.18 55.566 A 18.362 18.362 0 0 0 397.07 57.52 A 62.062 62.062 0 0 0 397.108 59.639 A 76.795 76.795 0 0 0 397.314 63.184 A 19.409 19.409 0 0 0 397.439 64.313 A 16.596 16.596 0 0 0 398.682 68.75 Q 399.805 71.289 402.1 72.998 Q 403.642 74.146 405.955 74.523 A 15.224 15.224 0 0 0 408.398 74.707 A 17.223 17.223 0 0 0 409.245 74.686 A 14.715 14.715 0 0 0 414.697 73.389 A 17.245 17.245 0 0 0 419.873 69.727 A 20.802 20.802 0 0 0 421.311 68.094 A 24.005 24.005 0 0 0 423.828 64.16 A 31.717 31.717 0 0 0 424.033 63.755 Z M 47.363 36.035 Q 47.852 35.449 49.219 35.059 A 25.652 25.652 0 0 1 52.051 34.424 A 25.132 25.132 0 0 1 53.455 34.229 A 18.749 18.749 0 0 1 54.736 34.131 A 25.436 25.436 0 0 1 54.933 34.124 Q 55.931 34.092 56.136 34.173 A 0.2 0.2 0 0 1 56.152 34.18 A 0.049 0.049 0 0 1 56.163 34.205 Q 56.2 34.393 55.803 35.76 A 56.378 56.378 0 0 1 55.664 36.23 Q 55.261 37.573 54.72 39.239 A 220.067 220.067 0 0 1 54.199 40.82 A 362.977 362.977 0 0 1 52.465 45.893 A 396.335 396.335 0 0 1 52.344 46.24 A 123.801 123.801 0 0 0 51.886 47.568 Q 51.335 49.196 50.987 50.399 A 37.349 37.349 0 0 0 50.879 50.781 Q 50.423 52.422 49.797 54.446 A 185.399 185.399 0 0 1 49.707 54.736 A 87.832 87.832 0 0 0 48.554 58.77 A 80.278 80.278 0 0 0 48.486 59.033 A 30.607 30.607 0 0 0 47.99 61.318 A 24.435 24.435 0 0 0 47.754 62.988 A 10.61 10.61 0 0 0 47.712 63.5 Q 47.647 64.647 47.883 65.408 A 2.723 2.723 0 0 0 48.047 65.82 A 6.971 6.971 0 0 0 48.329 66.422 Q 48.7 67.116 49.121 67.432 A 2.203 2.203 0 0 0 49.811 67.787 A 2.006 2.006 0 0 0 50.391 67.871 A 4.744 4.744 0 0 0 51.774 67.643 Q 53.315 67.17 55.322 65.723 A 50.229 50.229 0 0 0 58.894 62.879 A 63.253 63.253 0 0 0 61.377 60.596 A 89.873 89.873 0 0 0 66.925 54.733 A 82.815 82.815 0 0 0 67.09 54.541 A 113.258 113.258 0 0 0 68.323 53.079 Q 69.641 51.488 70.508 50.299 A 28.155 28.155 0 0 0 70.996 49.609 A 5.466 5.466 0 0 1 71.537 49.02 Q 72.062 48.532 72.607 48.34 Q 73.274 48.105 73.752 48.31 A 1.153 1.153 0 0 1 73.975 48.437 Q 74.512 48.828 74.561 49.707 Q 74.597 50.367 74.221 51.193 A 6.383 6.383 0 0 1 73.926 51.758 A 33.529 33.529 0 0 1 72.678 53.759 Q 72.001 54.772 71.165 55.895 A 78.12 78.12 0 0 1 69.336 58.252 A 96.422 96.422 0 0 1 62.891 65.479 Q 59.473 68.945 56.201 71.387 A 23.153 23.153 0 0 1 54.642 72.461 Q 52.417 73.853 50.879 73.926 Q 49.219 74.023 47.607 73.389 A 10.321 10.321 0 0 1 44.678 71.631 A 10.096 10.096 0 0 1 42.48 68.994 A 7.104 7.104 0 0 1 41.519 66.027 A 6.977 6.977 0 0 1 41.504 65.82 Q 41.232 63.551 41.466 59.719 A 75.246 75.246 0 0 1 41.504 59.131 A 82.834 82.834 0 0 1 42.482 50.994 A 90.536 90.536 0 0 1 42.578 50.439 A 72.796 72.796 0 0 1 44.138 43.509 A 65.166 65.166 0 0 1 44.58 41.992 A 30.598 30.598 0 0 1 45.371 39.703 Q 46.214 37.565 47.194 36.254 A 8.459 8.459 0 0 1 47.363 36.035 Z M 258.008 36.035 Q 258.496 35.449 259.863 35.059 A 25.652 25.652 0 0 1 262.695 34.424 A 25.132 25.132 0 0 1 264.099 34.229 A 18.749 18.749 0 0 1 265.381 34.131 A 25.436 25.436 0 0 1 265.577 34.124 Q 266.576 34.092 266.781 34.173 A 0.2 0.2 0 0 1 266.797 34.18 A 0.049 0.049 0 0 1 266.808 34.205 Q 266.845 34.393 266.448 35.76 A 56.378 56.378 0 0 1 266.309 36.23 Q 265.906 37.573 265.364 39.239 A 220.067 220.067 0 0 1 264.844 40.82 A 362.977 362.977 0 0 1 263.11 45.893 A 396.335 396.335 0 0 1 262.988 46.24 A 123.801 123.801 0 0 0 262.531 47.568 Q 261.98 49.196 261.632 50.399 A 37.349 37.349 0 0 0 261.523 50.781 Q 261.068 52.422 260.442 54.446 A 185.399 185.399 0 0 1 260.352 54.736 A 87.832 87.832 0 0 0 259.199 58.77 A 80.278 80.278 0 0 0 259.131 59.033 A 30.607 30.607 0 0 0 258.635 61.318 A 24.435 24.435 0 0 0 258.398 62.988 A 10.61 10.61 0 0 0 258.357 63.5 Q 258.292 64.647 258.528 65.408 A 2.723 2.723 0 0 0 258.691 65.82 A 6.971 6.971 0 0 0 258.974 66.422 Q 259.345 67.116 259.766 67.432 A 2.203 2.203 0 0 0 260.456 67.787 A 2.006 2.006 0 0 0 261.035 67.871 A 4.744 4.744 0 0 0 262.418 67.643 Q 263.96 67.17 265.967 65.723 A 50.229 50.229 0 0 0 269.538 62.879 A 63.253 63.253 0 0 0 272.022 60.596 A 89.873 89.873 0 0 0 277.569 54.733 A 82.815 82.815 0 0 0 277.734 54.541 A 113.258 113.258 0 0 0 278.967 53.079 Q 280.285 51.488 281.152 50.299 A 28.155 28.155 0 0 0 281.641 49.609 A 5.466 5.466 0 0 1 282.182 49.02 Q 282.706 48.532 283.252 48.34 Q 283.919 48.105 284.396 48.31 A 1.153 1.153 0 0 1 284.619 48.437 Q 285.156 48.828 285.205 49.707 Q 285.242 50.367 284.865 51.193 A 6.383 6.383 0 0 1 284.57 51.758 A 33.529 33.529 0 0 1 283.323 53.759 Q 282.645 54.772 281.809 55.895 A 78.12 78.12 0 0 1 279.98 58.252 A 96.422 96.422 0 0 1 273.535 65.479 Q 270.117 68.945 266.846 71.387 A 23.153 23.153 0 0 1 265.286 72.461 Q 263.062 73.853 261.523 73.926 Q 259.863 74.023 258.252 73.389 A 10.321 10.321 0 0 1 255.322 71.631 A 10.096 10.096 0 0 1 253.125 68.994 A 7.104 7.104 0 0 1 252.164 66.027 A 6.977 6.977 0 0 1 252.148 65.82 Q 251.876 63.551 252.11 59.719 A 75.246 75.246 0 0 1 252.148 59.131 A 82.834 82.834 0 0 1 253.127 50.994 A 90.536 90.536 0 0 1 253.223 50.439 A 72.796 72.796 0 0 1 254.782 43.509 A 65.166 65.166 0 0 1 255.225 41.992 A 30.598 30.598 0 0 1 256.016 39.703 Q 256.858 37.565 257.838 36.254 A 8.459 8.459 0 0 1 258.008 36.035 Z M 88.281 57.617 Q 88.77 55.664 89.453 53.027 A 95.919 95.919 0 0 0 90.369 49.182 A 83.754 83.754 0 0 0 90.625 47.949 Q 91.089 45.629 91.333 44.059 A 47.197 47.197 0 0 0 91.357 43.896 A 12.147 12.147 0 0 0 91.399 43.602 Q 91.563 42.3 91.214 42.382 A 0.21 0.21 0 0 0 91.211 42.383 A 7.671 7.671 0 0 0 90.698 42.505 Q 90.434 42.577 90.146 42.673 A 12.243 12.243 0 0 0 90.137 42.676 A 3.552 3.552 0 0 1 89.73 42.808 Q 89.52 42.864 89.273 42.908 A 8.021 8.021 0 0 1 88.867 42.969 Q 88.086 43.066 87.305 43.262 A 15.075 15.075 0 0 0 87.731 42.338 Q 88.132 41.379 88.232 40.674 A 10.215 10.215 0 0 0 88.286 40.235 Q 88.357 39.517 88.281 39.063 Q 88.184 38.379 87.891 37.988 A 1.088 1.088 0 0 0 87.211 37.745 Q 86.108 37.715 84.131 39.404 A 14.973 14.973 0 0 0 82.555 41 Q 80.969 42.836 79.138 45.811 A 72.937 72.937 0 0 0 77.93 47.852 Q 76.465 50.391 75.586 53.271 A 38.243 38.243 0 0 0 74.767 56.404 A 29.982 29.982 0 0 0 74.365 58.691 A 25.688 25.688 0 0 0 74.202 60.243 Q 74.103 61.597 74.184 62.739 A 12.813 12.813 0 0 0 74.219 63.135 A 10.992 10.992 0 0 0 74.332 63.955 Q 74.471 64.73 74.703 65.194 A 1.64 1.64 0 0 0 75 65.625 A 3.758 3.758 0 0 0 75.897 66.3 Q 76.564 66.653 77.323 66.653 A 3.315 3.315 0 0 0 77.441 66.65 A 6.046 6.046 0 0 0 79.257 66.292 A 7.782 7.782 0 0 0 80.225 65.869 A 14.761 14.761 0 0 0 81.995 64.782 A 18.332 18.332 0 0 0 83.057 63.965 A 23.278 23.278 0 0 0 85.127 62.035 A 20.675 20.675 0 0 0 85.596 61.523 Q 86.719 60.254 87.451 59.18 A 13.713 13.713 0 0 0 87.76 58.708 Q 88.174 58.043 88.268 57.673 A 1.097 1.097 0 0 0 88.281 57.617 Z M 403.711 59.57 A 30.509 30.509 0 0 0 403.906 63.037 A 11.766 11.766 0 0 0 404.212 64.696 A 9.012 9.012 0 0 0 404.688 66.064 A 6.45 6.45 0 0 0 405.47 67.393 A 5.411 5.411 0 0 0 406.25 68.213 A 3.399 3.399 0 0 0 407.773 68.943 A 4.885 4.885 0 0 0 408.789 69.043 A 6.423 6.423 0 0 0 412.012 68.213 A 10.332 10.332 0 0 0 414.648 66.064 A 15.494 15.494 0 0 0 416.269 63.867 A 18.071 18.071 0 0 0 416.748 63.037 A 27.088 27.088 0 0 0 418.359 59.473 Q 417.676 59.57 417.041 59.619 A 15.928 15.928 0 0 1 416.37 59.656 A 21.644 21.644 0 0 1 415.625 59.668 A 10.483 10.483 0 0 1 411.972 59.048 A 9.496 9.496 0 0 1 409.229 57.471 A 14.317 14.317 0 0 1 405.364 52.486 A 16.852 16.852 0 0 1 405.078 51.855 A 51.636 51.636 0 0 0 404.202 55.37 A 46.615 46.615 0 0 0 404.102 55.859 A 20.338 20.338 0 0 0 403.766 58.224 A 16.877 16.877 0 0 0 403.711 59.57 Z M 409.961 42.383 A 5.827 5.827 0 0 0 409.668 44.231 A 6.611 6.611 0 0 0 409.668 44.238 A 27.82 27.82 0 0 0 409.778 46.664 A 32.157 32.157 0 0 0 409.863 47.51 A 8.318 8.318 0 0 0 410.39 49.652 A 7.389 7.389 0 0 0 410.84 50.586 A 5.37 5.37 0 0 0 412.074 52.037 A 7.583 7.583 0 0 0 413.33 52.881 A 6.574 6.574 0 0 0 414.797 53.446 Q 415.529 53.639 416.406 53.729 A 16.261 16.261 0 0 0 418.066 53.809 A 9.808 9.808 0 0 0 419.043 53.76 A 10.103 10.103 0 0 0 420.02 53.613 A 400.206 400.206 0 0 1 420.3 52.405 A 291.5 291.5 0 0 1 420.557 51.318 A 10.324 10.324 0 0 0 420.715 50.526 Q 420.774 50.147 420.792 49.81 A 5.454 5.454 0 0 0 420.801 49.512 Q 420.996 47.656 420.801 45.703 A 18.097 18.097 0 0 0 420.473 43.614 A 14.562 14.562 0 0 0 420.068 42.139 A 10.488 10.488 0 0 0 419.563 40.883 Q 419.253 40.243 418.878 39.731 A 6.04 6.04 0 0 0 418.701 39.502 A 3.058 3.058 0 0 0 418.038 38.882 A 2.343 2.343 0 0 0 416.699 38.477 A 6.743 6.743 0 0 0 413.457 39.319 A 8.095 8.095 0 0 0 413.135 39.502 A 10.699 10.699 0 0 0 411.191 41.012 A 13.97 13.97 0 0 0 409.961 42.383 Z M 60.283 16.525 A 5.214 5.214 0 0 0 60.84 15.234 A 5.72 5.72 0 0 0 61.028 14.344 Q 61.112 13.714 61.084 12.988 Q 61.035 11.719 60.645 10.693 A 4.829 4.829 0 0 0 60.413 10.176 A 3.854 3.854 0 0 0 59.522 9.033 A 1.951 1.951 0 0 0 58.201 8.548 Q 57.968 8.548 57.715 8.594 A 2.965 2.965 0 0 0 57.581 8.621 Q 56.876 8.783 56.011 9.327 A 11.003 11.003 0 0 0 55.176 9.912 Q 53.711 11.035 52.734 12.646 A 6.986 6.986 0 0 0 52.721 12.669 Q 51.847 14.124 51.847 15.738 A 6.055 6.055 0 0 0 51.855 16.064 A 3.425 3.425 0 0 0 52.19 17.356 Q 52.705 18.444 54.004 19.434 A 1.772 1.772 0 0 0 54.572 19.763 Q 54.961 19.901 55.436 19.866 A 3.056 3.056 0 0 0 55.762 19.824 Q 56.836 19.629 57.861 18.994 A 6.828 6.828 0 0 0 58.483 18.559 A 7.732 7.732 0 0 0 59.717 17.334 A 6.832 6.832 0 0 0 60.283 16.525 Z M 270.928 16.525 A 5.214 5.214 0 0 0 271.484 15.234 A 5.72 5.72 0 0 0 271.673 14.344 Q 271.756 13.714 271.729 12.988 Q 271.68 11.719 271.289 10.693 A 4.829 4.829 0 0 0 271.057 10.176 A 3.854 3.854 0 0 0 270.166 9.033 A 1.951 1.951 0 0 0 268.846 8.548 Q 268.612 8.548 268.359 8.594 A 2.965 2.965 0 0 0 268.225 8.621 Q 267.521 8.783 266.656 9.327 A 11.003 11.003 0 0 0 265.82 9.912 Q 264.355 11.035 263.379 12.646 A 6.986 6.986 0 0 0 263.365 12.669 Q 262.491 14.124 262.491 15.738 A 6.055 6.055 0 0 0 262.5 16.064 A 3.425 3.425 0 0 0 262.834 17.356 Q 263.349 18.444 264.648 19.434 A 1.772 1.772 0 0 0 265.216 19.763 Q 265.605 19.901 266.08 19.866 A 3.056 3.056 0 0 0 266.406 19.824 Q 267.48 19.629 268.506 18.994 A 6.828 6.828 0 0 0 269.128 18.559 A 7.732 7.732 0 0 0 270.361 17.334 A 6.832 6.832 0 0 0 270.928 16.525 Z" vector-effect="non-scaling-stroke"/></g></svg>